<svg width="146" height="956" viewBox="0 0 146 956" fill="none" xmlns="http://www.w3.org/2000/svg">
<path d="M143.08 955.943V917.919H94.08V853.043H62.524L62.524 917.919H39.2L39.2 846.183H5.88L5.88 955.943H143.08Z" fill="white"/>
<path d="M143.08 831.005V793.765H110.152C85.652 793.765 74.48 782.789 74.48 763.385V760.249H35.28C34.496 777.889 43.904 787.689 58.408 793.765H37.044V831.005H143.08Z" fill="white"/>
<path d="M145.628 696.555C145.628 675.387 137.004 660.687 124.068 650.495L107.016 671.075C114.464 678.719 117.796 685.775 117.796 694.595C117.796 706.159 111.916 714.587 100.352 717.527V646.575C97.804 646.379 95.06 646.379 92.708 646.379C61.544 646.379 34.692 663.235 34.692 699.887C34.692 731.247 59.192 753.395 90.16 753.395C123.48 753.395 145.628 729.875 145.628 696.555ZM81.34 718.115C69.776 716.155 62.132 709.491 62.132 699.691C62.132 689.499 69.58 682.639 81.34 681.267V718.115Z" fill="white"/>
<path d="M145.628 577.883C145.628 556.715 137.004 542.015 124.068 531.823L107.016 552.403C114.464 560.047 117.796 567.103 117.796 575.923C117.796 587.487 111.916 595.915 100.352 598.855V527.903C97.804 527.707 95.06 527.707 92.708 527.707C61.544 527.707 34.692 544.563 34.692 581.215C34.692 612.575 59.192 634.723 90.16 634.723C123.48 634.723 145.628 611.203 145.628 577.883ZM81.34 599.443C69.776 597.483 62.132 590.819 62.132 581.019C62.132 570.827 69.58 563.967 81.34 562.595V599.443Z" fill="white"/>
<path d="M143.08 510.955V473.715H0L0 510.955H143.08Z" fill="white"/>
<path d="M145.432 422.598C145.432 408.682 140.14 398.686 132.104 391.434H143.08V354.586H82.124C67.228 354.586 56.252 357.917 48.412 365.953C39.984 374.381 35.476 387.318 35.476 406.33C35.476 424.558 38.808 437.298 43.708 449.254L69.972 441.609C66.248 432.201 64.092 423.578 64.092 412.406C64.092 398.098 70.364 391.237 81.34 391.237H83.104C80.948 397.313 78.988 406.918 78.988 416.718C78.988 441.61 90.356 458.27 112.308 458.27C133.868 458.27 145.432 442.786 145.432 422.598ZM122.108 409.27C122.108 416.914 117.796 422.401 110.544 422.401C102.312 422.401 97.02 416.129 97.02 405.349C97.02 399.861 98.196 394.57 99.764 390.846H104.664C115.248 390.846 122.108 398.49 122.108 409.27Z" fill="white"/>
<path d="M143.08 335.646V298.405H85.652C74.088 298.405 67.816 291.741 67.816 282.725C67.816 273.905 74.088 267.829 85.652 267.829H143.08L143.08 230.589H73.696C49.588 230.589 34.692 244.114 34.692 266.654C34.692 281.746 43.12 291.545 51.94 298.405H37.044L37.044 335.646H143.08Z" fill="white"/>
<path d="M145.628 160.267C145.628 136.943 135.828 122.831 121.324 113.031L103.096 138.315C109.956 144.195 114.268 149.487 114.268 158.307C114.268 170.851 103.88 179.475 90.16 179.475C76.832 179.475 66.248 171.243 66.248 157.719C66.248 149.683 69.58 143.607 76.636 138.511L58.604 113.619C44.296 122.635 34.888 137.139 34.888 158.895C34.888 192.411 60.172 215.735 90.16 215.735C120.54 215.735 145.628 192.215 145.628 160.267Z" fill="white"/>
<path d="M145.628 50.1761C145.628 29.0081 137.004 14.3081 124.068 4.11609L107.016 24.696C114.464 32.34 117.796 39.3961 117.796 48.2161C117.796 59.7801 111.916 68.2081 100.352 71.1481V0.196045C97.804 3.57628e-05 95.06 6.10352e-05 92.708 6.10352e-05C61.544 6.10352e-05 34.692 16.8561 34.692 53.5081C34.692 84.8681 59.192 107.016 90.16 107.016C123.48 107.016 145.628 83.4961 145.628 50.1761ZM81.34 71.7361C69.776 69.7761 62.132 63.1121 62.132 53.3121C62.132 43.1201 69.58 36.2601 81.34 34.8881V71.7361Z" fill="white"/>
</svg>
