<svg fill="#74C044" xmlns="http://www.w3.org/2000/svg" width="74" height="74" id="icon-opportunities-05" viewBox="0 0 40 40">
  <path d="M32.5 15.8h-3.1v-4.3c0-1.4-1.1-2.5-2.5-2.5h-19.4c-1.4 0-2.5 1.1-2.5 2.5v11.2c0 1.4 1.1 2.5 2.5 2.5h3.1v4.3c0 1.4 1.1 2.5 2.5 2.5h19.4c1.4 0 2.5-1.1 2.5-2.5v-11.2c0-1.4-1.1-2.5-2.5-2.5zM6.4 11.5c0-0.6 0.5-1.1 1.1-1.1h19.4c0.6 0 1.1 0.5 1.1 1.1v1h-21.6v-1zM10.6 18.3v5.5h-3.1c-0.6 0-1.1-0.5-1.1-1.1v-5.5h4.4c-0.2 0.4-0.2 0.7-0.2 1.1zM6.4 15.8v-1.9h21.6v1.9h-14.9c0 0-0.1 0-0.1 0h-6.6zM32.5 30.6h-19.4c-0.6 0-1.1-0.5-1.1-1.1v-11.2c0-0.6 0.4-1 1-1.1h15.8c0 0 0.1 0 0.1 0h3.7c0.6 0 1.1 0.5 1.1 1.1v11.2c-0.1 0.6-0.6 1.1-1.2 1.1z"></path>
  <path d="M24.9 20.5c-0.8 0-1.6 0.3-2.2 0.8-0.6-0.5-1.4-0.8-2.2-0.8-1.9 0-3.4 1.5-3.4 3.4s1.5 3.4 3.4 3.4c0.8 0 1.6-0.3 2.2-0.8 0.6 0.5 1.3 0.8 2.2 0.8 1.9 0 3.4-1.5 3.4-3.4 0.1-1.9-1.5-3.4-3.4-3.4zM21.9 25.5c-0.4 0.3-0.8 0.4-1.2 0.4-1.1 0-2-0.9-2-2s0.9-2 2-2c0.5 0 0.9 0.2 1.2 0.4-0.2 0.5-0.4 1-0.4 1.6s0.1 1.1 0.4 1.6zM24.9 26c-1.1 0-2-0.9-2-2s0.9-2 2-2c1.1 0 2 0.9 2 2s-0.9 2-2 2z"></path>
</svg>