<svg fill="#74C044" xmlns="http://www.w3.org/2000/svg" width="74" height="74" id="icon-opportunities-04" viewBox="0 0 40 40">
			<path d="M30.4 24.3l1.8-1.8c1.1-1.1 1.1-3 0-4.1-0.3-0.3-0.8-0.6-1.2-0.7 0.4-0.5 0.6-1.1 0.6-1.7 0-0.8-0.3-1.5-0.8-2.1s-1.3-0.9-2-0.9c0 0-0.1 0-0.1 0 0-0.8-0.3-1.6-0.8-2.2-0.6-0.6-1.4-0.9-2.1-0.9 0 0 0-0.1 0-0.1 0-0.8-0.3-1.5-0.8-2.1-1.1-1.1-3-1.1-4.1 0l-0.9 0.8-0.6-0.6c-0.5-0.6-1.3-0.9-2-0.9-0.8 0-1.5 0.3-2 0.9-0.6 0.6-0.9 1.4-0.8 2.2 0 0-0.1 0-0.1 0-0.8 0-1.5 0.3-2 0.9-0.6 0.6-0.9 1.4-0.8 2.2 0 0-0.1 0-0.1 0-0.8 0-1.5 0.3-2 0.9s-0.8 1.3-0.8 2.1c0 0.6 0.2 1.2 0.6 1.7-0.4 0.1-0.9 0.4-1.2 0.7-1.1 1.1-1.1 3 0 4.1 0 0 0 0 0 0l1.8 1.8c0 0 0 0 0 0 0.1 0.1 0.2 0.2 0.3 0.3l-0.5 0.5c-0.5 0.5-0.8 1.2-0.7 2 0 0.7 0.3 1.4 0.9 2l3 3c0.6 0.6 1.3 0.8 2 0.8s1.5-0.3 2-0.8l1.4-1.4c0.6 0.1 1.3 0.2 1.9 0.2 0.7 0 1.3-0.1 1.9-0.2l1.4 1.4c0.6 0.6 1.3 0.8 2 0.8s1.5-0.3 2-0.8l3-3c1.1-1.1 1.2-2.8 0.3-3.8l-0.9-0.8 0.4-0.4c0 0 0 0 0 0zM16.4 9c0.3-0.3 0.6-0.4 0.9-0.4 0.4 0 0.7 0.1 0.9 0.4l2.4 2.4c0.5 0.5 0.5 1.4 0 1.9-0.3 0.3-0.6 0.4-0.9 0.4-0.4 0-0.7-0.1-0.9-0.4 0 0 0 0 0 0l-2.4-2.4c0 0 0 0 0 0-0.5-0.6-0.5-1.4 0-1.9zM13.4 13.9c-0.5-0.5-0.5-1.4 0-1.9 0.3-0.3 0.6-0.4 0.9-0.4 0.4 0 0.7 0.1 0.9 0.4 0 0 0 0 0 0s0 0 0 0l2.4 2.4c0 0 0 0 0 0l0.6 0.6c0.3 0.3 0.4 0.6 0.4 0.9 0 0.4-0.1 0.7-0.4 0.9-0.3 0.3-0.6 0.4-0.9 0.4-0.4 0-0.7-0.1-0.9-0.4 0 0 0 0 0 0l-0.6-0.6c0 0 0 0 0 0l-2.4-2.3c0 0 0 0 0 0zM10.4 15c0.3-0.3 0.6-0.4 0.9-0.4s0.7 0.1 0.9 0.4l2.4 2.4c0.5 0.5 0.5 1.4 0 1.9-0.3 0.3-0.6 0.4-0.9 0.4s-0.7-0.1-0.9-0.4c0 0 0 0 0 0l-2.4-2.4c0 0 0 0 0 0-0.3-0.3-0.4-0.6-0.4-0.9 0-0.4 0.2-0.8 0.4-1zM9 21.4c0 0-0.1 0 0 0-0.5-0.5-0.5-1.4 0-1.9 0.3-0.3 0.6-0.4 0.9-0.4 0.4 0 0.7 0.1 0.9 0.4l1.8 1.8c0.5 0.5 0.5 1.4 0 1.9-0.3 0.3-0.6 0.4-0.9 0.4-0.1 0-0.1 0-0.2 0 0 0 0 0 0 0-0.3 0-0.5-0.2-0.7-0.4 0 0 0 0 0 0l-1.8-1.8zM18 29.1c0 0 0 0 0 0s0 0 0 0c-0.1 0-0.1 0-0.1 0s0 0 0 0 0 0 0 0 0 0 0 0 0 0 0 0 0 0 0 0 0 0 0 0 0 0 0 0 0 0 0 0 0 0 0 0 0 0 0 0 0 0 0 0 0 0 0 0 0 0 0 0 0 0 0 0 0 0 0 0 0 0 0 0 0 0 0 0 0 0 0 0 0 0 0 0l-2.3 1.9c-0.5 0.5-1.3 0.5-1.8 0l-3-3c-0.3-0.3-0.4-0.6-0.4-0.9s0.1-0.6 0.3-0.8l1.1-1.1c0 0 0 0 0 0 0.8 0 1.5-0.3 2-0.9 0.8-0.8 1.1-2.1 0.6-3.1 0.5-0.1 1-0.4 1.4-0.8 0.5-0.5 0.7-1 0.8-1.6 0.2 0.1 0.5 0.1 0.7 0.1 0.8 0 1.5-0.3 2-0.9s0.8-1.3 0.8-2.1c0-0.2 0-0.5-0.1-0.7 0.6-0.1 1.2-0.4 1.6-0.8 1.1-1.1 1.1-3 0-4.1l-0.7-0.7 0.8-0.6c0.5-0.5 1.4-0.5 1.9 0 0.2 0.2 0.4 0.6 0.4 0.9s-0.1 0.7-0.4 0.9c-0.2 0.2-0.2 0.4-0.2 0.6s0.1 0.4 0.2 0.6c0.3 0.3 0.8 0.3 1.1 0 0.5-0.5 1.4-0.5 1.9 0s0.5 1.4 0 1.9c-0.2 0.2-0.2 0.4-0.2 0.6s0.1 0.4 0.2 0.6c0.3 0.3 0.8 0.3 1.1 0s0.6-0.4 0.9-0.4c0.4 0 0.7 0.1 0.9 0.4 0.3 0.3 0.4 0.6 0.4 0.9 0 0.4-0.1 0.7-0.4 0.9 0 0 0 0 0 0l-1.1 1.1c-0.3 0.3-0.3 0.7-0.1 1v0.1c0.2 0.3 0.7 0.4 1 0.2 0.5-0.3 1.2-0.2 1.6 0.2 0.5 0.5 0.5 1.4 0 1.9l-1.8 1.8c0 0 0 0 0 0l-3.8 3.9c-1.8 2-4.6 2.7-7.3 2zM29.6 26.4c0.3 0.3 0.2 1.1-0.3 1.6l-3 3c-0.5 0.5-1.3 0.5-1.8 0l-0.8-0.8c1.1-0.5 2.1-1.1 2.9-2l2.4-2.5 0.6 0.7z"></path>
		</svg>