<svg fill="#74C044" xmlns="http://www.w3.org/2000/svg" width="74" height="74" id="icon-opportunities-01" viewBox="0 0 40 40">
<path d="M34.8 5.9c-0.1-0.4-0.3-0.6-0.7-0.7-4.3-0.8-9.8 1-14.5 4.9-1.2-0.6-2.6-0.8-3.9-0.6-1.5 0.2-2.8 0.9-3.8 1.9l-5.7 5.6c-0.3 0.3-0.3 0.6-0.2 1 0.1 0.3 0.4 0.5 0.7 0.6l5.8 0.6c-0.1 0.2-0.2 0.5-0.3 0.7-0.5 1.1-0.2 2.3 0.6 3.2l4.3 4.3c0.6 0.6 1.3 0.8 2 0.8 0.4 0 0.8-0.1 1.1-0.2 0.2-0.1 0.5-0.2 0.7-0.3l0.6 5.8c0 0.3 0.3 0.6 0.6 0.7 0.1 0 0.2 0.1 0.3 0.1 0.2 0 0.5-0.1 0.6-0.3l5.7-5.7c2.1-2.1 2.6-5.2 1.3-7.8 3.8-4.8 5.6-10.3 4.8-14.6zM22.6 24.6l-7.2-7.1c1-1.5 2.1-3 3.5-4.3 2.3-2.3 4.8-4 7.4-5.1l5.7 5.7c-0.9 2-2.1 4.1-3.8 6-0.4 0.5-0.8 0.9-1.3 1.4-1.4 1.2-2.8 2.4-4.3 3.4zM31.9 6.8c0.4 0 0.8 0 1.2 0.1 0.2 1.6 0 3.3-0.5 5.1l-4.6-4.6c1.4-0.4 2.7-0.6 3.9-0.6zM8.7 17l4.4-4.4c1.3-1.3 3.3-1.8 5.1-1.2-0.2 0.2-0.4 0.3-0.5 0.5-1.7 1.7-3.1 3.6-4.3 5.5l-4.7-0.4zM19.5 26.2c-0.4 0.2-0.9 0.1-1.2-0.2l-4.3-4.3c-0.3-0.3-0.4-0.8-0.2-1.2 0.2-0.5 0.4-1 0.7-1.5l6.5 6.5c-0.5 0.2-1 0.5-1.5 0.7zM27.4 26.9l-4.4 4.4-0.4-4.6c2-1.1 3.8-2.6 5.5-4.3 0.2-0.2 0.3-0.4 0.5-0.5 0.6 1.7 0.1 3.6-1.2 5z"></path>
<path d="M26.4 13.6c-1.1-1.1-2.9-1.1-4.1 0-1.1 1.1-1.1 2.9 0 4.1 0.5 0.5 1.3 0.8 2 0.8 0.8 0 1.5-0.3 2-0.8 1.2-1.2 1.2-3 0.1-4.1zM25.2 16.4c-0.2 0.2-0.5 0.3-0.8 0.3s-0.6-0.1-0.8-0.3c-0.4-0.4-0.4-1.1 0-1.6 0.2-0.2 0.5-0.3 0.8-0.3s0.6 0.1 0.8 0.3c0.4 0.5 0.4 1.2 0 1.6z"></path>
<path d="M13.6 26.4c-0.3-0.3-0.9-0.3-1.2 0l-7.1 7.1c-0.3 0.3-0.3 0.9 0 1.2 0.1 0.2 0.4 0.3 0.6 0.3s0.4-0.1 0.6-0.3l7.1-7.1c0.3-0.3 0.3-0.8 0-1.2z"></path>
<path d="M8.4 27.2l2.4-2.4c0.3-0.3 0.3-0.9 0-1.2s-0.9-0.3-1.2 0l-2.5 2.4c-0.3 0.3-0.3 0.9 0 1.2 0.2 0.2 0.4 0.3 0.6 0.3 0.3 0 0.5-0.1 0.7-0.3z"></path>
<path d="M15.2 29.2l-2.4 2.4c-0.3 0.3-0.3 0.9 0 1.2 0.2 0.2 0.4 0.3 0.6 0.3s0.4-0.1 0.6-0.3l2.4-2.4c0.3-0.3 0.3-0.9 0-1.2s-0.9-0.3-1.2 0z"></path>
</svg>