<svg  fill="#74C044" xmlns="http://www.w3.org/2000/svg" width="74" height="74" id="icon-clock" viewBox="0 0 14 14">
	<path d="M10.249 6.25297H7.75002V3.75392C7.75002 3.33972 7.41421 3.00391 7.00001 3.00391C6.58581 3.00391 6.25 3.33972 6.25 3.75392V7.00296C6.25 7.41716 6.58581 7.75297 7.00001 7.75297H10.249C10.6632 7.75297 10.999 7.41716 10.999 7.00296C10.999 6.58875 10.6632 6.25297 10.249 6.25297Z" fill="#74C044"/>
	<path d="M7 0C3.14021 0 0 3.14021 0 7.00006C0 10.8598 3.14021 14 7 14C10.8598 14 14 10.8598 14 7.00006C14 3.14021 10.8598 0 7 0ZM7 12.5C3.9673 12.5 1.5 10.0328 1.5 7.00006C1.5 3.9673 3.9673 1.5 7 1.5C10.0327 1.5 12.5 3.9673 12.5 7.00006C12.5 10.0328 10.0327 12.5 7 12.5Z" fill="#74C044"/>
</svg>