		<svg xmlns="http://www.w3.org/2000/svg" width="74" height="74" id="icon-mail" viewBox="0 0 14 12">
			<path d="M12.3384 0.683594H1.66168C0.745437 0.683594 0 1.39946 0 2.27936V9.72116C0 10.6011 0.745437 11.3169 1.66168 11.3169H12.3384C13.2546 11.3169 14 10.6011 14 9.72116V2.27936C14 1.39946 13.2546 0.683594 12.3384 0.683594ZM12.3384 9.90812H1.66168C1.527 9.90812 1.40888 9.82078 1.40888 9.72116V3.26342L6.23766 7.34013C6.33665 7.42374 6.46254 7.46976 6.59216 7.46976L7.40769 7.46979C7.53724 7.46979 7.6632 7.42374 7.76224 7.34013L12.5912 3.26327V9.72123C12.5912 9.82078 12.473 9.90812 12.3384 9.90812ZM7.00002 6.07092L2.30343 2.0924H11.6966L7.00002 6.07092Z" fill="#74C044"/>
		</svg>