<svg width="700" height="149" viewBox="0 0 700 149" fill="none" xmlns="http://www.w3.org/2000/svg">
<path d="M55.76 123.08C84.66 123.08 103.87 108.63 103.87 84.32C103.87 61.71 86.87 52.87 59.5 46.92C43.01 43.18 38.93 40.8 38.93 35.36C38.93 30.77 42.84 27.37 50.83 27.37C61.37 27.37 73.27 31.45 84.15 39.1L100.64 15.81C87.72 5.44 71.91 0 51.68 0C23.12 0 5.61 15.98 5.61 38.08C5.61 62.9 25.16 70.04 50.49 75.82C66.64 79.56 70.55 82.28 70.55 87.21C70.55 92.65 65.79 95.71 56.95 95.71C43.18 95.71 30.09 90.78 18.36 81.43L0 103.36C14.62 116.45 34.68 123.08 55.76 123.08Z" fill="#F5F5F5"/>
<path d="M148.638 123.08C161.728 123.08 170.228 116.11 176.178 108.46V121.04H208.478V29.07H176.178V78.88C176.178 88.91 170.398 94.35 162.748 94.35C154.928 94.35 149.658 88.91 149.658 78.88V29.07H117.358V89.25C117.358 110.16 129.088 123.08 148.638 123.08Z" fill="#F5F5F5"/>
<path d="M225.783 148.24H258.083V109.82C264.033 116.79 272.193 123.08 286.133 123.08C307.893 123.08 326.763 104.89 326.763 74.97C326.763 45.22 307.893 27.03 285.963 27.03C272.193 27.03 264.373 33.66 258.083 41.31V29.07H225.783V148.24ZM276.103 96.05C265.733 96.05 257.403 87.38 257.403 75.14C257.403 62.73 265.733 54.06 276.103 54.06C286.643 54.06 294.973 62.73 294.973 74.8C294.973 87.55 286.643 96.05 276.103 96.05Z" fill="#F5F5F5"/>
<path d="M340.665 148.24H372.965V109.82C378.915 116.79 387.075 123.08 401.015 123.08C422.775 123.08 441.645 104.89 441.645 74.97C441.645 45.22 422.775 27.03 400.845 27.03C387.075 27.03 379.255 33.66 372.965 41.31V29.07H340.665V148.24ZM390.985 96.05C380.615 96.05 372.285 87.38 372.285 75.14C372.285 62.73 380.615 54.06 390.985 54.06C401.525 54.06 409.855 62.73 409.855 74.8C409.855 87.55 401.525 96.05 390.985 96.05Z" fill="#F5F5F5"/>
<path d="M502.468 123.25C532.048 123.25 553.468 101.32 553.468 75.14C553.468 48.62 532.218 27.03 502.808 27.03C473.228 27.03 451.808 48.96 451.808 75.14C451.808 101.66 473.058 123.25 502.468 123.25ZM502.808 95.88C491.418 95.88 483.258 86.36 483.258 75.14C483.258 63.75 490.738 54.4 502.468 54.4C513.858 54.4 522.018 63.92 522.018 75.14C522.018 86.53 514.538 95.88 502.808 95.88Z" fill="#F5F5F5"/>
<path d="M567.111 121.04H599.411V92.48C599.411 71.23 608.931 61.54 625.761 61.54H628.481V27.54C613.181 26.86 604.681 35.02 599.411 47.6V29.07H567.111V121.04Z" fill="#F5F5F5"/>
<path d="M676.375 122.91C685.385 122.91 693.036 120.87 698.816 117.64V92.31C694.906 94.18 690.826 95.37 686.576 95.37C680.626 95.37 677.736 92.65 677.736 86.19V55.08H699.156V29.07H677.736V5.78H645.436V29.07H634.556V55.08H645.436V92.48C645.436 114.41 656.995 122.91 676.375 122.91Z" fill="#F5F5F5"/>
</svg>
