<svg width="147" height="698" viewBox="0 0 147 698" fill="none" xmlns="http://www.w3.org/2000/svg">
<path d="M144.98 651.196V618.072L65.9919 590.632L144.98 562.996V529.872L6.79992 484.008L6.79992 523.404L86.1799 547.316L6.40792 573.776L6.40792 606.508L86.1799 632.968L6.79992 656.88L6.79992 697.06L144.98 651.196Z" fill="white"/>
<path d="M146.548 431.714C146.548 410.546 137.924 395.846 124.988 385.654L107.936 406.234C115.384 413.878 118.716 420.934 118.716 429.754C118.716 441.318 112.836 449.746 101.272 452.686V381.734C98.7239 381.538 95.9799 381.538 93.6279 381.538C62.4639 381.538 35.6119 398.394 35.6119 435.046C35.6119 466.406 60.1119 488.554 91.0799 488.554C124.4 488.554 146.548 465.034 146.548 431.714ZM82.2599 453.274C70.6959 451.314 63.0519 444.65 63.0519 434.85C63.0519 424.658 70.4999 417.798 82.2599 416.426V453.274Z" fill="white"/>
<path d="M146.352 335.19C146.352 321.274 141.06 311.278 133.024 304.026H144V267.178H83.0439C68.1479 267.178 57.1719 270.51 49.3319 278.546C40.9039 286.974 36.3959 299.91 36.3959 318.922C36.3959 337.15 39.7279 349.89 44.6279 361.846L70.8919 354.202C67.1679 344.794 65.0119 336.17 65.0119 324.998C65.0119 310.69 71.2839 303.83 82.2599 303.83H84.0239C81.8679 309.906 79.9079 319.51 79.9079 329.31C79.9079 354.202 91.2759 370.862 113.228 370.862C134.788 370.862 146.352 355.378 146.352 335.19ZM123.028 321.862C123.028 329.506 118.716 334.994 111.464 334.994C103.232 334.994 97.9399 328.722 97.9399 317.942C97.9399 312.454 99.1159 307.162 100.684 303.438H105.584C116.168 303.438 123.028 311.082 123.028 321.862Z" fill="white"/>
<path d="M144 247.454V210.214H0.919922L0.919922 247.454H144Z" fill="white"/>
<path d="M146.156 147.337C146.156 136.949 143.804 128.129 140.08 121.465H110.876C113.032 125.973 114.404 130.677 114.404 135.577C114.404 142.437 111.268 145.769 103.82 145.769H67.9519V121.073H37.9639V145.769H11.1119L11.1119 183.009H37.9639V195.553H67.9519V183.009H111.072C136.356 183.009 146.156 169.681 146.156 147.337Z" fill="white"/>
<path d="M144 105.067V67.8265H86.5719C75.0079 67.8265 68.7359 61.1625 68.7359 52.1465C68.7359 43.3265 75.0079 37.2505 86.5719 37.2505H144L144 0.0105591H74.6159C50.5079 0.0105591 35.6119 13.5346 35.6119 36.0746C35.6119 51.1666 43.6479 60.9665 52.4679 67.8265H0.919922L0.919922 105.067H144Z" fill="white"/>
</svg>
