<svg class="icon" width="26" height="38" viewBox="0 0 26 38" fill="none" xmlns="http://www.w3.org/2000/svg">
<g clip-path="url(#clip0)">
<path d="M23.3828 21.3594C23.9177 22.8453 24.2149 24.0934 24.2149 25.1633" stroke="#4774B5" stroke-width="1.97561" stroke-miterlimit="10" stroke-linecap="round"/>
<path d="M6.5625 13.5125C9.65319 7.86601 13.2194 2.57617 13.2194 2.57617C13.2194 2.57617 16.2506 7.0339 19.163 12.2049" stroke="#4774B5" stroke-width="1.97561" stroke-miterlimit="10" stroke-linecap="round"/>
<path d="M13.2773 22.6086V11.4346L15.1793 10.127" stroke="#4774B5" stroke-width="1.31707" stroke-miterlimit="10" stroke-linecap="round"/>
<path d="M13.2809 11.4346L11.3789 10.127" stroke="#4774B5" stroke-width="1.31707" stroke-miterlimit="10" stroke-linecap="round"/>
<path d="M13.2773 16.4855L16.903 13.9297" stroke="#4774B5" stroke-width="1.31707" stroke-miterlimit="10" stroke-linecap="round"/>
<path d="M13.2194 16.4269L9.59375 13.8711" stroke="#4774B5" stroke-width="1.31707" stroke-miterlimit="10" stroke-linecap="round"/>
<path d="M13.2181 32.2949L10.7812 34.0186" stroke="#4774B5" stroke-width="1.31707" stroke-miterlimit="10" stroke-linecap="round"/>
<path d="M13.2188 25.1641V32.3559" stroke="#4774B5" stroke-width="1.31707" stroke-miterlimit="10" stroke-linecap="round"/>
<path d="M13.2188 32.2949L15.5962 34.0186" stroke="#4774B5" stroke-width="1.31707" stroke-miterlimit="10" stroke-linecap="round"/>
<path d="M13.2195 29.0859L10.9609 30.6907" stroke="#4774B5" stroke-width="1.31707" stroke-miterlimit="10" stroke-linecap="round"/>
<path d="M13.2773 29.2051L16.903 31.7608" stroke="#4774B5" stroke-width="1.31707" stroke-miterlimit="10" stroke-linecap="round"/>
<path d="M13.2188 22.8462L22.6691 17.0215L25.4032 18.2102" stroke="#4774B5" stroke-width="1.31707" stroke-miterlimit="10" stroke-linecap="round"/>
<path d="M22.668 17.0198L22.9057 14.1074" stroke="#4774B5" stroke-width="1.31707" stroke-miterlimit="10" stroke-linecap="round"/>
<path d="M18.4492 19.6953L20.7672 20.7057" stroke="#4774B5" stroke-width="1.31707" stroke-miterlimit="10" stroke-linecap="round"/>
<path d="M18.5703 17.3777L18.7486 15.1191" stroke="#4774B5" stroke-width="1.31707" stroke-miterlimit="10" stroke-linecap="round"/>
<path d="M15.7188 24.3906L21.3652 27.8379" stroke="#4774B5" stroke-width="1.31707" stroke-miterlimit="10" stroke-linecap="round"/>
<path d="M18.3906 26.0551L21.0653 24.9258" stroke="#4774B5" stroke-width="1.31707" stroke-miterlimit="10" stroke-linecap="round"/>
<path d="M18.3906 26.1738L18.7472 30.5721" stroke="#4774B5" stroke-width="1.31707" stroke-miterlimit="10" stroke-linecap="round"/>
<path d="M13.2205 22.8462L3.71064 17.0215L0.976562 18.2102" stroke="#4774B5" stroke-width="1.31707" stroke-miterlimit="10" stroke-linecap="round"/>
<path d="M3.7104 17.0198L3.47266 14.1074" stroke="#4774B5" stroke-width="1.31707" stroke-miterlimit="10" stroke-linecap="round"/>
<path d="M7.99089 19.6953L3.94922 21.419" stroke="#4774B5" stroke-width="1.31707" stroke-miterlimit="10" stroke-linecap="round"/>
<path d="M7.99165 19.5754L7.75391 15.7715" stroke="#4774B5" stroke-width="1.31707" stroke-miterlimit="10" stroke-linecap="round"/>
<path d="M13.2187 22.8457L7.98828 26.0553" stroke="#4774B5" stroke-width="1.31707" stroke-miterlimit="10" stroke-linecap="round"/>
<path d="M7.99074 26.0553L5.61328 25.0449" stroke="#4774B5" stroke-width="1.31707" stroke-miterlimit="10" stroke-linecap="round"/>
<path d="M7.86972 28.1348L7.69141 30.5717" stroke="#4774B5" stroke-width="1.31707" stroke-miterlimit="10" stroke-linecap="round"/>
<path d="M24.218 25.6382C24.218 31.7007 19.2848 36.6339 13.2223 36.6339C7.15978 36.6339 2.22656 31.7007 2.22656 25.6382C2.22656 25.2816 2.286 24.925 2.34544 24.5684" stroke="#4774B5" stroke-width="1.97561" stroke-miterlimit="10" stroke-linecap="round"/>
</g>
<defs>
<clipPath id="clip0">
<rect width="25.6171" height="36.5534" fill="white" transform="translate(0.382812 0.972656)"/>
</clipPath>
</defs>
</svg>
