<svg fill="#74C044" xmlns="http://www.w3.org/2000/svg" width="74" height="74" id="icon-phone" viewBox="0 0 14 14">
			<path d="M5 0H1C0.447733 0 0 0.447733 0 1V5C0 5.55227 0.447733 6 1 6H5C5.55227 6 6 5.55227 6 5V1C6 0.447733 5.55227 0 5 0ZM4 4H2V2H4V4Z"/>
			<path d="M5 8H1C0.447733 8 0 8.44773 0 9V13C0 13.5523 0.447733 14 1 14H5C5.55227 14 6 13.5523 6 13V9C6 8.44773 5.55227 8 5 8ZM4 12H2V10H4V12Z"/>
			<path d="M13 0H9C8.44773 0 8 0.447733 8 1V5C8 5.55227 8.44773 6 9 6H13C13.5523 6 14 5.55227 14 5V1C14 0.447733 13.5523 0 13 0ZM12 4H10V2H12V4Z"/>
			<path d="M13 8H9C8.44773 8 8 8.44773 8 9V13C8 13.5523 8.44773 14 9 14H13C13.5523 14 14 13.5523 14 13V9C14 8.44773 13.5523 8 13 8ZM12 12H10V10H12V12Z"/>
</svg>
