<svg fill="#74C044" xmlns="http://www.w3.org/2000/svg" width="74" height="74" id="icon-account" viewBox="0 0 24 24">
	<path fill-rule="evenodd" clip-rule="evenodd" d="M0 12C2.98023e-08 5.38286 5.38286 0 12 0C18.6171 2.98023e-08 24 5.38286 24 12C24 18.6171 18.6171 24 12 24C5.38286 24 0 18.6171 0 12ZM21.5625 12C21.5625 6.72761 17.2724 2.43752 12 2.43752C6.72761 2.43752 2.43752 6.72761 2.43752 12C2.43752 14.0535 3.09491 15.953 4.20402 17.514C9.17165 15.2916 14.8283 15.2916 19.796 17.514C20.9051 15.953 21.5625 14.0535 21.5625 12ZM5.98289 19.4167C7.62829 20.7563 9.72038 21.5626 12 21.5626C14.2796 21.5626 16.3717 20.7563 18.0171 19.4167C14.1393 17.9124 9.8607 17.9124 5.98289 19.4167ZM16.825 9.8125C16.825 12.4667 14.6667 14.625 12.0125 14.625C9.35832 14.625 7.2 12.4667 7.2 9.8125C7.2 7.15828 9.35832 5 12.0125 5C14.6667 5 16.825 7.15828 16.825 9.8125ZM14.3875 9.8125C14.3875 8.50306 13.322 7.43751 12.0125 7.43751C10.7031 7.43751 9.63751 8.50306 9.63751 9.8125C9.63751 11.1219 10.703 12.1875 12.0125 12.1875C13.3219 12.1875 14.3875 11.122 14.3875 9.8125Z"/>
</svg>