<svg width="147" height="597" viewBox="0 0 147 597" fill="none" xmlns="http://www.w3.org/2000/svg">
<path d="M144.98 550.68V517.556L65.992 490.116L144.98 462.48V429.356L6.80004 383.492L6.80004 422.888L86.18 446.8L6.40804 473.26L6.40804 505.992L86.18 532.452L6.80004 556.364L6.80004 596.544L144.98 550.68Z" fill="white"/>
<path d="M146.548 329.631C146.548 295.527 121.264 270.831 91.08 270.831C60.504 270.831 35.612 295.331 35.612 329.239C35.612 363.343 60.896 388.039 91.08 388.039C121.656 388.039 146.548 363.539 146.548 329.631ZM114.992 329.239C114.992 342.371 104.016 351.779 91.08 351.779C77.948 351.779 67.168 343.155 67.168 329.631C67.168 316.499 78.144 307.091 91.08 307.091C104.212 307.091 114.992 315.715 114.992 329.239Z" fill="white"/>
<path d="M144 255.102V217.862H111.072C86.572 217.862 75.4 206.886 75.4 187.482V184.346H36.2C35.416 201.986 44.824 211.786 59.328 217.862H37.964V255.102H144Z" fill="white"/>
<path d="M144 170.482V133.242H0.920044L0.920044 170.482H144Z" fill="white"/>
<path d="M146.352 69.5801C146.352 53.7041 138.708 44.4921 129.888 37.2401H144V6.10352e-05H0.920044L0.920044 37.2401H50.9C42.864 44.2961 35.612 53.7041 35.612 69.7761C35.612 94.8641 56.584 116.424 91.08 116.424C125.38 116.424 146.352 94.6681 146.352 69.5801ZM115.188 58.212C115.188 70.168 105.192 79.9681 91.08 79.9681C76.576 79.9681 66.776 70.168 66.776 58.212C66.776 46.256 76.772 36.652 90.688 36.652C105.192 36.652 115.188 46.256 115.188 58.212Z" fill="white"/>
</svg>
