<svg fill="#74C044" xmlns="http://www.w3.org/2000/svg" width="74" height="74" id="icon-phone" viewBox="0 0 18 18">
	<path d="M13.8656 11.7246L16.0629 13.0922C16.1754 13.1555 16.2035 13.2715 16.1543 13.3594L15.2086 15.0117C14.6813 15.9328 13.5352 16.5094 12.5895 16.0875C6.99609 13.5985 4.22578 10.8633 1.9125 5.41056C1.5082 4.45783 2.06719 3.31876 2.98828 2.79142L4.64063 1.84572C4.69688 1.81408 4.8375 1.77892 4.89375 1.91603L6.28594 4.15548C6.32109 4.21876 6.29649 4.33126 6.21211 4.384L5.72695 4.69337C5.06602 5.11525 4.79883 5.94494 5.09063 6.66212C5.73398 8.24767 7.63594 10.2481 7.7168 10.3324C7.82227 10.4344 9.76992 12.2836 11.3414 12.9129C12.0586 13.2012 12.8813 12.9305 13.3031 12.2731L13.6125 11.7844C13.6512 11.7281 13.7637 11.6613 13.8656 11.7246ZM13.2012 17.6133C14.5055 17.6133 15.7746 16.9102 16.4531 15.7254L17.3988 14.0731C17.8418 13.2961 17.5746 12.3047 16.7977 11.8582L14.6004 10.4906C13.827 10.0477 12.8707 10.2797 12.4031 11.0145L12.0938 11.5031C12.0445 11.577 11.9531 11.6121 11.8793 11.5805C10.568 11.0567 8.75391 9.334 8.73633 9.31994C8.73633 9.31994 6.96445 7.45314 6.42656 6.12423C6.39492 6.04689 6.43008 5.95548 6.50391 5.90626L6.98906 5.59689C7.72031 5.12931 7.95586 4.17658 7.52344 3.42072L6.13125 1.17775C5.92734 0.826187 5.06953 1.53184e-05 3.92695 0.597672L2.27461 1.54337C0.78047 2.40119 0.0492191 4.20119 0.537891 5.82189C1.34297 8.49728 2.8582 10.8949 5.04141 12.9551C7.10156 15.1348 9.49922 16.65 12.1746 17.4586C12.5121 17.5641 12.8566 17.6133 13.2012 17.6133Z"/>
	<path d="M16.3336 7.7098C16.7309 7.7098 17.0508 7.38988 17.0508 6.99261C17.0508 3.6598 14.3402 0.94574 11.0074 0.94574C10.6102 0.94574 10.2902 1.26566 10.2902 1.66293C10.2902 2.06019 10.6102 2.38011 11.0074 2.38011C13.5492 2.38011 15.6164 4.4473 15.6164 6.9891C15.6164 7.38988 15.9363 7.7098 16.3336 7.7098Z"/>
	<path d="M13.2434 7.70981C13.6406 7.70981 13.9605 7.38988 13.9605 6.99262C13.9605 5.36488 12.6351 4.03949 11.0074 4.03949C10.6101 4.03949 10.2902 4.35941 10.2902 4.75668C10.2902 5.15394 10.6101 5.47387 11.0074 5.47387C11.8441 5.47387 12.5262 6.1559 12.5262 6.99262C12.5262 7.38988 12.8461 7.70981 13.2434 7.70981Z"/>
</svg>
