<svg xmlns="http://www.w3.org/2000/svg" fill="#74C044" width="74" height="74" id="icon-company-mission-1" viewBox="0 0 60 60">
  <path d="M39.0067 10.0376C33.8373 10.0312 28.8503 11.9492 25.0173 15.4178C20.5987 9.75702 12.6121 8.36061 6.5356 12.1873C0.458638 16.0135 -1.73404 23.8192 1.4613 30.2503C4.65664 36.681 12.2022 39.648 18.9218 37.1163C19.2052 38.0467 19.5556 38.9552 19.9693 39.8354C15.8825 42.5258 14.068 47.5942 15.5181 52.2669C16.9682 56.9392 21.3335 60.0901 26.2248 59.9945C31.1167 59.8989 35.3552 56.5801 36.6218 51.8542C44.3542 52.7451 51.9442 49.2814 56.3384 42.8566C60.732 36.4317 61.2072 28.1021 57.5723 21.2191C53.9373 14.3361 46.7904 10.0317 39.0067 10.0376ZM2.0346 24.027C2.0263 18.8698 5.32216 14.2873 10.214 12.6542C15.1058 11.0212 20.4938 12.705 23.5852 16.8327C20.004 20.6892 18.0167 25.7591 18.0225 31.0217C18.0255 32.4118 18.166 33.7975 18.4412 35.1597C14.7516 36.6386 10.5677 36.1873 7.2782 33.9551C3.98869 31.7234 2.02386 28.0025 2.0346 24.027ZM26.0165 58.0014C21.0495 58.0014 17.0233 53.9751 17.0233 49.0082C17.0233 44.0417 21.0495 40.015 26.0165 40.015C30.9835 40.015 35.0097 44.0417 35.0097 49.0082C35.0044 53.9727 30.981 57.996 26.0165 58.0014ZM39.0067 50.0074C38.3241 50.0025 37.6425 49.9611 36.9643 49.8825C36.9872 49.5937 37.0082 49.3034 37.0082 49.0082C37.0082 45.323 35.1605 41.8827 32.0886 39.8466C29.0162 37.8106 25.128 37.45 21.7336 38.8859C21.2369 37.8076 20.8446 36.6845 20.5626 35.5315C20.2035 34.0551 20.0215 32.5411 20.021 31.0217C20.021 20.5365 28.5215 12.0361 39.0067 12.0361C49.4924 12.0361 57.9924 20.5365 57.9924 31.0217C57.9924 41.5075 49.4924 50.0074 39.0067 50.0074Z"/>
  <path d="M9.02932 45.0112C9.02932 44.4594 8.5819 44.012 8.03007 44.012C7.47824 44.012 7.03083 44.4594 7.03083 45.0112C7.03083 46.6672 5.68858 48.0089 4.03309 48.0089C3.48126 48.0089 3.03384 48.4564 3.03384 49.0082C3.03384 49.56 3.48126 50.0074 4.03309 50.0074C5.68858 50.0074 7.03083 51.3497 7.03083 53.0052C7.03083 53.557 7.47824 54.0044 8.03007 54.0044C8.5819 54.0044 9.02932 53.557 9.02932 53.0052C9.02932 51.3497 10.3716 50.0074 12.0271 50.0074C12.5789 50.0074 13.0263 49.56 13.0263 49.0082C13.0263 48.4564 12.5789 48.0089 12.0271 48.0089C10.3716 48.0089 9.02932 46.6672 9.02932 45.0112ZM8.03007 50.0387C7.73928 49.6464 7.39188 49.2995 7.00009 49.0082C7.39188 48.7174 7.73928 48.37 8.03007 47.9782C8.32136 48.37 8.66827 48.7174 9.06055 49.0082C8.66827 49.2995 8.32136 49.6464 8.03007 50.0387Z"/>
  <path d="M48.9992 9.03826C48.9992 9.59009 49.4466 10.0375 49.9984 10.0375C50.5502 10.0375 50.9977 9.59009 50.9977 9.03826C50.9977 7.38277 52.3399 6.04052 53.9954 6.04052C54.5472 6.04052 54.9946 5.5931 54.9946 5.04128C54.9946 4.48945 54.5472 4.04203 53.9954 4.04203C52.3399 4.04203 50.9977 2.70027 50.9977 1.04429C50.9977 0.49246 50.5502 0.0450439 49.9984 0.0450439C49.4466 0.0450439 48.9992 0.49246 48.9992 1.04429C48.9992 2.70027 47.6569 4.04203 46.0014 4.04203C45.4496 4.04203 45.0022 4.48945 45.0022 5.04128C45.0022 5.5931 45.4496 6.04052 46.0014 6.04052C47.6569 6.04052 48.9992 7.38277 48.9992 9.03826ZM49.9984 4.01129C50.2897 4.40308 50.6366 4.75048 51.0289 5.04128C50.6366 5.33256 50.2897 5.67947 49.9984 6.07175C49.7076 5.67947 49.3602 5.33256 48.9684 5.04128C49.3602 4.75048 49.7076 4.40308 49.9984 4.01129Z"/>
  <path d="M51.9969 31.0216C50.3414 31.0216 48.9991 29.6799 48.9991 28.0239C48.9991 27.4721 48.5517 27.0247 47.9999 27.0247C47.4481 27.0247 47.0006 27.4721 47.0006 28.0239C47.0006 29.6799 45.6584 31.0216 44.0029 31.0216C43.4511 31.0216 43.0037 31.4691 43.0037 32.0209C43.0037 32.5727 43.4511 33.0201 44.0029 33.0201C45.6584 33.0201 47.0006 34.3624 47.0006 36.0179C47.0006 36.5697 47.4481 37.0171 47.9999 37.0171C48.5517 37.0171 48.9991 36.5697 48.9991 36.0179C48.9991 34.3624 50.3414 33.0201 51.9969 33.0201C52.5487 33.0201 52.9961 32.5727 52.9961 32.0209C52.9961 31.4691 52.5487 31.0216 51.9969 31.0216ZM47.9999 33.0514C47.7091 32.6591 47.3617 32.3122 46.9699 32.0209C47.3617 31.7301 47.7091 31.3827 47.9999 30.9909C48.2912 31.3827 48.6381 31.7301 49.0304 32.0209C48.6381 32.3122 48.2912 32.6591 47.9999 33.0514Z"/>
  <path d="M41.0052 23.0277C41.0052 22.4759 40.5578 22.0285 40.006 22.0285C38.3505 22.0285 37.0082 20.6867 37.0082 19.0307C37.0082 18.4789 36.5608 18.0315 36.009 18.0315C35.4572 18.0315 35.0097 18.4789 35.0097 19.0307C35.0097 20.6867 33.6675 22.0285 32.012 22.0285C31.4602 22.0285 31.0128 22.4759 31.0128 23.0277C31.0128 23.5796 31.4602 24.027 32.012 24.027C33.6675 24.027 35.0097 25.3692 35.0097 27.0247C35.0097 27.5765 35.4572 28.024 36.009 28.024C36.5608 28.024 37.0082 27.5765 37.0082 27.0247C37.0082 25.3692 38.3505 24.027 40.006 24.027C40.5578 24.027 41.0052 23.5796 41.0052 23.0277ZM36.009 24.0582C35.7182 23.6659 35.3708 23.319 34.979 23.0277C35.3708 22.7369 35.7182 22.3895 36.009 21.9977C36.3003 22.3895 36.6472 22.7369 37.0395 23.0277C36.6472 23.319 36.3003 23.6659 36.009 24.0582Z"/>
  <path d="M12.0271 41.0142H14.0256V43.0127H12.0271V41.0142Z"/>
  <path d="M2.03458 55.0035H4.03307V57.002H2.03458V55.0035Z"/>
  <path d="M58.9916 52.0059C58.9916 50.3504 57.6494 49.0082 55.9939 49.0082C54.3384 49.0082 52.9961 50.3504 52.9961 52.0059C52.9961 53.6619 54.3384 55.0037 55.9939 55.0037C57.6494 55.0037 58.9916 53.6619 58.9916 52.0059ZM54.9946 52.0059C54.9946 51.4541 55.442 51.0067 55.9939 51.0067C56.5457 51.0067 56.9931 51.4541 56.9931 52.0059C56.9931 52.5577 56.5457 53.0052 55.9939 53.0052C55.442 53.0052 54.9946 52.5577 54.9946 52.0059Z"/>
  <path d="M30.0135 7.03971C30.0135 4.83239 28.2238 3.04272 26.0165 3.04272C23.8092 3.04272 22.0195 4.83239 22.0195 7.03971C22.0195 9.24752 23.8092 11.0367 26.0165 11.0367C28.2238 11.0367 30.0135 9.24752 30.0135 7.03971ZM24.018 7.03971C24.018 5.93605 24.9129 5.04122 26.0165 5.04122C27.1202 5.04122 28.015 5.93605 28.015 7.03971C28.015 8.14386 27.1202 9.0382 26.0165 9.0382C24.9129 9.0382 24.018 8.14386 24.018 7.03971Z"/>
  <path d="M36.009 5.04126H38.0075V7.03975H36.009V5.04126Z"/>
  <path d="M40.006 42.0134H42.0044V44.0119H40.006V42.0134Z"/>
  <path d="M46.0014 55.0035H47.9999V57.002H46.0014V55.0035Z"/>
  <path d="M12.0271 26.0255H14.0256V28.024H12.0271V26.0255Z"/>
  <path d="M4.03307 26.1158L6.03156 25.9357C6.02668 25.8879 5.63196 21.1322 8.26474 18.2413C9.77532 16.7073 11.8763 15.9018 14.0255 16.033V14.0345C11.3113 13.8911 8.66873 14.9357 6.78587 16.8966C3.56028 20.4301 4.01599 25.886 4.03307 26.1158Z"/>
  <path d="M40.006 14.0345V16.033C40.5056 16.033 52.1521 16.2463 54.0066 30.1547L55.9871 29.8907C53.8954 14.2165 40.145 14.0345 40.006 14.0345Z"/>
</svg>