<svg fill="#74C044" xmlns="http://www.w3.org/2000/svg" width="74" height="74" id="icon-opportunities-03" viewBox="0 0 40 40">
			<path d="M31.1 12.1h-22.2c-0.4 0-0.7 0.3-0.7 0.7v10.7c0 0.4 0.3 0.7 0.7 0.7s0.7-0.3 0.7-0.7v-10h20.7v10c0 0.4 0.3 0.7 0.7 0.7s0.7-0.3 0.7-0.7v-10.7c0.1-0.4-0.2-0.7-0.6-0.7z"></path>
			<path d="M36.3 26h-1.3v-14.9c0-1.1-1-2.1-2.2-2.1h-25.6c-1.2 0-2.2 1-2.2 2.1v14.9h-1.3c-0.4 0-0.7 0.3-0.7 0.6v1.2c0 1.8 1.5 3.2 3.2 3.2h27.5c1.8 0 3.2-1.4 3.2-3.1v-1.2c0.1-0.4-0.2-0.7-0.6-0.7zM6.5 11.1c0-0.4 0.3-0.7 0.7-0.7h25.6c0.4 0 0.7 0.3 0.7 0.7v14.9h-9.9c0 0-0.1 0-0.1 0-0.3 0.1-0.5 0.3-0.5 0.6 0 0.5-0.5 1-1 1h-3.9c-0.6 0-1-0.4-1-1 0-0.4-0.3-0.6-0.7-0.6h-9.9v-14.9zM35.7 27.9c0 1-0.9 1.9-1.9 1.9h-27.6c-1.1 0-1.9-0.8-1.9-1.9v-0.6h11.5c0.3 0.9 1.2 1.6 2.2 1.6h3.9c1.1 0 1.9-0.7 2.2-1.6h11.5v0.6z"></path>
			<path d="M21.1 16.2c-0.3-0.3-0.7-0.3-1 0l-4.6 4.4c-0.3 0.3-0.3 0.7 0 1 0.1 0.1 0.3 0.2 0.5 0.2s0.4-0.1 0.5-0.2l4.6-4.4c0.3-0.3 0.3-0.7 0-1z"></path>
			<path d="M23.8 18.8c-0.3-0.3-0.7-0.3-1 0l-1.8 1.8c-0.3 0.3-0.3 0.7 0 1 0.1 0.1 0.3 0.2 0.5 0.2s0.4-0.1 0.5-0.2l1.8-1.8c0.3-0.3 0.3-0.8 0-1z"></path>
		</svg>