<svg fill="#74C044" xmlns="http://www.w3.org/2000/svg" width="74" height="74" id="icon-phone" viewBox="0 0 12 14">
  <path d="M5.99949 3.00952C4.56635 3.00952 3.40039 4.17548 3.40039 5.60862C3.40039 7.04176 4.56635 8.20772 5.99949 8.20772C7.43263 8.20772 8.59859 7.04176 8.59859 5.60862C8.59859 4.17548 7.43266 3.00952 5.99949 3.00952ZM5.99949 7.11337C5.16977 7.11337 4.49474 6.43834 4.49474 5.60862C4.49474 4.77891 5.16977 4.10387 5.99949 4.10387C6.82921 4.10387 7.50424 4.77891 7.50424 5.60862C7.50424 6.43834 6.82921 7.11337 5.99949 7.11337Z"/>
  <path d="M5.99924 0C2.90663 0 0.390625 2.51604 0.390625 5.60861V5.76365C0.390625 7.32771 1.28734 9.15034 3.05593 11.1808C4.33802 12.6528 5.60221 13.6791 5.65536 13.7221L5.99924 14L6.34311 13.7222C6.3963 13.6792 7.66048 12.6528 8.94255 11.1808C10.7111 9.15034 11.6079 7.32774 11.6079 5.76368V5.60864C11.6079 2.51604 9.09184 0 5.99924 0ZM10.5135 5.76368C10.5135 8.40686 7.10781 11.6065 5.99924 12.5778C4.89037 11.6062 1.48498 8.40667 1.48498 5.76368V5.60864C1.48498 3.11948 3.51008 1.09438 5.99924 1.09438C8.48839 1.09438 10.5135 3.11948 10.5135 5.60864V5.76368Z"/>
</svg>
