<svg fill="#74C044" xmlns="http://www.w3.org/2000/svg" width="74" height="74" id="icon-company-mission-2" viewBox="0 0 36 56">
  <path d="M35.9943 44.8146C35.9943 44.6941 35.9742 44.5788 35.9383 44.4707V26.0902C35.9383 25.0614 35.8931 24.0351 35.8063 23.0131C35.8072 22.9935 35.8093 22.9738 35.8093 22.9538C35.8093 22.8687 35.7986 22.7863 35.7803 22.7064C35.5513 20.2625 35.0745 17.8473 34.3541 15.4915L32.5751 9.67411V4.04217C32.5751 1.81323 30.7618 0 28.5329 0H7.5244C5.29546 0 3.48223 1.81323 3.48223 4.04217V9.67411L1.70318 15.4919C0.982847 17.8473 0.506042 20.263 0.277038 22.7068C0.258667 22.7863 0.247985 22.8687 0.247985 22.9538C0.247985 22.9738 0.250122 22.9935 0.250976 23.0131C0.163818 24.0351 0.118957 25.0614 0.118957 26.0902V44.4702C0.0826416 44.5788 0.062561 44.6941 0.062561 44.8146C0.062561 44.9347 0.0826416 45.0504 0.118957 45.1585V51.442C0.118957 53.9551 2.16375 55.9999 4.67681 55.9999H31.3805C33.8936 55.9999 35.9383 53.9551 35.9383 51.442V45.1585C35.9742 45.05 35.9943 44.9347 35.9943 44.8146ZM2.30474 26.0902C2.30474 25.4078 2.32611 24.7264 2.36712 24.0466H18.8191C19.4223 24.0466 19.9119 23.5574 19.9119 22.9538C19.9119 22.3501 19.4223 21.8609 18.8191 21.8609H2.56921C2.81188 19.9224 3.2199 18.0063 3.79327 16.1311L5.3839 10.9302H30.6734L32.2636 16.1311C32.837 18.0063 33.2454 19.9224 33.4877 21.8609H27.6361C27.0324 21.8609 26.5432 22.3501 26.5432 22.9538C26.5432 23.5574 27.0324 24.0466 27.6361 24.0466H33.6902C33.7308 24.7264 33.7521 25.4078 33.7521 26.0902V43.7213H2.30474V26.0902ZM7.5244 2.18621H28.5329C29.5562 2.18621 30.3889 3.01891 30.3889 4.04217V8.74443H27.8655V5.46532C27.8655 4.86162 27.3764 4.372 26.7727 4.372C26.169 4.372 25.6798 4.86162 25.6798 5.46532V8.74443H23.4935V5.46532C23.4935 4.86162 23.0044 4.372 22.4007 4.372C21.797 4.372 21.3073 4.86162 21.3073 5.46532V8.74443H19.1215V5.46532C19.1215 4.86162 18.6319 4.372 18.0282 4.372C17.425 4.372 16.9353 4.86162 16.9353 5.46532V8.74443H14.7491V5.46532C14.7491 4.86162 14.2599 4.372 13.6562 4.372C13.0525 4.372 12.5633 4.86162 12.5633 5.46532V8.74443H10.3771V5.46532C10.3771 4.86162 9.88749 4.372 9.28422 4.372C8.68053 4.372 8.1909 4.86162 8.1909 5.46532V8.74443H5.66802V4.04217C5.66802 3.01891 6.50072 2.18621 7.5244 2.18621ZM31.3805 53.8137H4.67681C3.36858 53.8137 2.30474 52.7498 2.30474 51.4416V45.9075H33.7521V51.442C33.7521 52.7498 32.6883 53.8137 31.3805 53.8137Z"/>
  <path d="M27.129 28.4233H22.3964C20.6126 28.4233 19.0258 29.2834 18.0286 30.6104C17.0314 29.2834 15.4447 28.4233 13.6605 28.4233H8.92787C8.32417 28.4233 7.83498 28.9125 7.83498 29.5162V30.6087C7.83498 33.6199 10.2844 36.0698 13.2956 36.0698H16.9353V40.4422C16.9353 41.0459 17.4249 41.5355 18.0286 41.5355C18.6319 41.5355 19.1215 41.0459 19.1215 40.4422V36.0698H22.7612C25.7725 36.0698 28.2223 33.6199 28.2223 30.6087V29.5162C28.2223 28.9125 27.7327 28.4233 27.129 28.4233ZM10.0208 30.6091H13.6605C15.466 30.6091 16.9353 32.078 16.9353 33.8835H13.2956C11.4901 33.8835 10.0212 32.4147 10.0208 30.6091ZM22.7612 33.8835H19.1215C19.122 32.078 20.5908 30.6091 22.3964 30.6091H26.0361C26.0357 32.4147 24.5668 33.8835 22.7612 33.8835Z"/>
  <path d="M22.1823 23.3712C22.2097 23.4378 22.2434 23.5015 22.2827 23.5604C22.322 23.6207 22.3682 23.6762 22.4182 23.7266C22.4686 23.7766 22.5241 23.8228 22.5844 23.8621C22.6437 23.9014 22.707 23.9351 22.7736 23.9625C22.839 23.9898 22.9078 24.012 22.9778 24.0248C23.0479 24.0389 23.1201 24.0466 23.191 24.0466C23.262 24.0466 23.3342 24.0389 23.4051 24.0248C23.4743 24.012 23.5431 23.9898 23.6097 23.9625C23.6751 23.9351 23.7388 23.9014 23.7977 23.8621C23.858 23.8228 23.9135 23.7766 23.9639 23.7266C24.1682 23.5233 24.2844 23.2413 24.2844 22.9537C24.2844 22.6662 24.1682 22.3842 23.9639 22.1808C23.9135 22.1309 23.858 22.0847 23.7977 22.0454C23.7388 22.0061 23.6751 21.9724 23.6097 21.945C23.5431 21.9177 23.4743 21.8959 23.4051 21.8826C23.2641 21.8532 23.1188 21.854 22.9778 21.8826C22.9078 21.8959 22.839 21.9177 22.7736 21.945C22.707 21.9724 22.6437 22.0061 22.5844 22.0454C22.5241 22.0847 22.4686 22.1309 22.4182 22.1808C22.2148 22.3842 22.0981 22.6653 22.0981 22.9537C22.0981 23.0247 22.1054 23.0969 22.1199 23.1669C22.134 23.237 22.155 23.3058 22.1823 23.3712Z"/>
</svg>