<svg fill="#74C044" xmlns="http://www.w3.org/2000/svg" width="74" height="74" id="icon-company-mission-3" viewBox="0 0 60 56">
	<path d="M28.2952 19.4145C25.2923 17.5585 21.8469 16.7818 18.3319 17.1673C13.2086 17.7298 8.68213 20.7827 6.2233 25.3338C5.91569 25.9031 6.12791 26.6142 6.69733 26.9218C6.87452 27.0174 7.0653 27.0629 7.25338 27.0629C7.6701 27.0629 8.07346 26.8401 8.28545 26.4478C10.3783 22.5739 14.2296 19.9756 18.5878 19.4972C21.5777 19.1687 24.5089 19.8297 27.063 21.4084C27.6134 21.7481 28.3355 21.5782 28.676 21.0276C29.0163 20.4771 28.8458 19.755 28.2952 19.4145Z"/>
	<path d="M6.1343 30.7844H1.17188C0.524648 30.7844 0 31.3092 0 31.9563C0 32.6034 0.524648 33.1282 1.17188 33.1282H6.1343C6.78152 33.1282 7.30617 32.6034 7.30617 31.9563C7.30617 31.3092 6.78152 30.7844 6.1343 30.7844Z"/>
	<path d="M53.7767 25.3338C51.3179 20.7827 46.7913 17.7298 41.668 17.1673C39.6028 16.9407 37.5611 17.1136 35.5997 17.681C34.978 17.8609 34.6198 18.5108 34.7997 19.1325C34.9796 19.7543 35.6296 20.112 36.251 19.9325C37.9166 19.4506 39.6531 19.304 41.4122 19.4972C45.7703 19.9755 49.6217 22.5739 51.7145 26.4478C51.9265 26.8402 52.3299 27.0629 52.7466 27.0629C52.9347 27.0629 53.1254 27.0174 53.3026 26.9218C53.872 26.6142 54.0843 25.9032 53.7767 25.3338Z"/>
	<path d="M58.8281 30.7844H53.8656C53.2184 30.7844 52.6938 31.3091 52.6938 31.9563C52.6938 32.6034 53.2184 33.1282 53.8656 33.1282H58.8281C59.4753 33.1282 59.9999 32.6034 59.9999 31.9563C59.9999 31.3092 59.4753 30.7844 58.8281 30.7844Z"/>
	<path d="M58.8281 43.2649H52.9407C50.1682 43.2649 47.525 44.3452 45.4979 46.3069C41.9263 49.7635 37.4378 52.2921 33.1835 53.2442C33.0641 53.2709 32.9427 53.2844 32.8223 53.2844C32.0625 53.2844 31.3903 52.7449 31.2239 52.0016C31.1282 51.5739 31.2047 51.1346 31.4394 50.7644C31.6741 50.3942 32.0389 50.1378 32.4667 50.0422C36.4954 49.1405 40.1783 47.1207 43.1171 44.2013C44.7745 42.555 45.9947 40.5751 46.6458 38.4757C46.9909 37.363 47.1659 36.2832 47.1659 35.2661C47.1659 33.2715 46.3445 31.3699 44.8529 29.9115C43.2254 28.3201 40.9866 27.4353 38.7173 27.4875C36.926 27.5275 35.2334 28.1312 33.8221 29.2331C33.4723 29.5061 33.037 29.6246 32.5972 29.5664C32.1573 29.5082 31.7679 29.2805 31.5006 28.9252C30.9641 28.2121 31.1203 27.174 31.8489 26.6109C33.8858 25.0362 36.3272 24.204 38.9089 24.204C42.5795 24.204 46.0695 25.9811 48.2445 28.9577C48.6263 29.4803 49.3594 29.5942 49.882 29.2126C50.4046 28.8308 50.5187 28.0975 50.1368 27.575C47.5221 23.9966 43.3248 21.8601 38.9088 21.8601C35.8036 21.8601 32.8665 22.8616 30.4154 24.7564C30.2664 24.8716 30.1283 24.9958 29.9999 25.1268C29.8714 24.9958 29.7333 24.8716 29.5843 24.7564C27.1331 22.8616 24.1962 21.8601 21.0909 21.8601C16.6751 21.8601 12.4777 23.9964 9.86297 27.575C9.48117 28.0975 9.59519 28.8308 10.1177 29.2126C10.6404 29.5942 11.3735 29.4801 11.7553 28.9577C13.9303 25.9811 17.4203 24.204 21.0908 24.204C23.6726 24.204 26.1138 25.0364 28.1509 26.6109C28.8793 27.174 29.0355 28.2121 28.4991 28.9252C28.2318 29.2804 27.8423 29.5082 27.4024 29.5664C26.9625 29.625 26.5274 29.5062 26.1776 29.2331C24.7664 28.1312 23.0736 27.5274 21.2824 27.4875C19.0123 27.4347 16.7742 28.32 15.1468 29.9115C13.6553 31.3699 12.8339 33.2716 12.8339 35.2661C12.8339 36.2832 13.0089 37.363 13.354 38.4755C14.0052 40.5751 15.2254 42.5551 16.8826 44.2013C19.8214 47.1207 23.5043 49.1404 27.5331 50.0422C27.9607 50.1378 28.3255 50.3943 28.5602 50.7644C28.795 51.1345 28.8715 51.5738 28.7757 52.0014C28.6095 52.7449 27.9371 53.2844 27.1773 53.2844C27.057 53.2844 26.9355 53.2709 26.8164 53.2442C22.5618 52.2921 18.0732 49.7635 14.5016 46.3069C12.4746 44.3452 9.83133 43.2649 7.05879 43.2649H1.17188C0.524648 43.2649 0 43.7896 0 44.4368C0 45.0839 0.524648 45.6086 1.17188 45.6086H7.05926C9.22019 45.6086 11.2846 46.4547 12.8721 47.991C16.745 51.7393 21.6411 54.4877 26.3051 55.5315C26.5921 55.5957 26.8856 55.6282 27.1777 55.6282C28.26 55.6282 29.2685 55.1782 30 54.4429C30.7314 55.1782 31.74 55.6282 32.8223 55.6282C33.1144 55.6282 33.4079 55.5957 33.6952 55.5315C38.3589 54.4877 43.255 51.7394 47.1279 47.991C48.7154 46.4547 50.7799 45.6086 52.9409 45.6086H58.8281C59.4754 45.6086 60 45.0839 60 44.4368C60 43.7896 59.4754 43.2649 58.8281 43.2649ZM29.9998 48.833C29.4697 48.2978 28.7979 47.9234 28.0452 47.7549C24.4482 46.95 21.1596 45.1461 18.5346 42.5384C17.1482 41.1611 16.1309 39.5162 15.5927 37.7811C15.3175 36.8936 15.1778 36.0474 15.1778 35.266C15.1778 33.9073 15.7488 32.6009 16.7855 31.587C17.9648 30.4338 19.585 29.795 21.23 29.8304C22.5129 29.8591 23.725 30.2914 24.7354 31.0803C25.585 31.7436 26.6412 32.0308 27.7099 31.8898C28.5889 31.7736 29.3843 31.3784 29.9999 30.7623C30.6155 31.3785 31.4109 31.7736 32.29 31.8898C33.3587 32.0306 34.4149 31.7436 35.2645 31.0803C36.2749 30.2914 37.487 29.8591 38.7698 29.8304C40.4155 29.7989 42.035 30.4338 43.2144 31.587C44.2512 32.6008 44.8221 33.9073 44.8221 35.266C44.8221 36.0474 44.6825 36.8936 44.4072 37.7812C43.8691 39.5162 42.8518 41.1611 41.4653 42.5384C38.8403 45.1461 35.5516 46.95 31.9547 47.7549C31.2019 47.9234 30.53 48.2978 29.9998 48.833Z"/>
	<path d="M29.9984 0.371826C29.3512 0.371826 28.8266 0.896592 28.8266 1.5437V8.51554C28.8266 9.16276 29.3512 9.68741 29.9984 9.68741C30.6457 9.68741 31.1703 9.16265 31.1703 8.51554V1.5437C31.1703 0.896592 30.6457 0.371826 29.9984 0.371826Z"/>
	<path d="M23.3582 10.3775L20.5545 7.57617C20.0967 7.11891 19.3546 7.11914 18.8973 7.57687C18.4398 8.03473 18.4401 8.77664 18.8978 9.23426L21.7016 12.0356C21.9304 12.2641 22.2301 12.3785 22.5298 12.3785C22.83 12.3785 23.13 12.2639 23.3588 12.0349C23.8163 11.5771 23.816 10.8352 23.3582 10.3775Z"/>
	<path d="M17.1248 4.14736C16.6459 3.71178 15.9042 3.74787 15.4688 4.22682C15.0335 4.70564 15.0688 5.44685 15.5477 5.8822C15.7724 6.08634 16.0544 6.18689 16.3357 6.18689C16.6543 6.18689 16.9719 6.05763 17.2031 5.80334L17.2043 5.80205C17.6396 5.32322 17.6038 4.58271 17.1248 4.14736Z"/>
	<path d="M44.4269 4.25446C43.9693 3.79696 43.2272 3.79696 42.7697 4.25481L36.4642 10.5627C36.0065 11.0203 36.0068 11.7623 36.4644 12.2199C36.6933 12.4488 36.993 12.5631 37.2929 12.5631C37.5929 12.5631 37.8929 12.4486 38.1217 12.2196L44.4272 5.91172C44.8848 5.45411 44.8846 4.71208 44.4269 4.25446Z"/>
	<path d="M32.3262 21.5806C32.9734 21.5806 33.4981 21.0559 33.4981 20.4087C33.4981 19.7615 32.9734 19.2368 32.3262 19.2368C31.679 19.2368 31.1543 19.7615 31.1543 20.4087C31.1543 21.0559 31.679 21.5806 32.3262 21.5806Z"/>
</svg>