<svg xmlns="http://www.w3.org/2000/svg" width="74" height="74" id="icon-check" viewBox="0 0 16 11">
			<path d="M6.35986 10.124C6.21766 10.1243 6.07679 10.0965 5.94536 10.0422C5.81392 9.98794 5.6945 9.90823 5.59394 9.80768L0.998444 5.21109C0.894907 5.11123 0.812293 4.99175 0.755425 4.85962C0.698557 4.72749 0.668574 4.58536 0.667223 4.44152C0.665872 4.29767 0.693182 4.155 0.747559 4.02183C0.801936 3.88865 0.882291 3.76764 0.983935 3.66585C1.08558 3.56407 1.20648 3.48354 1.33957 3.42898C1.47267 3.37441 1.6153 3.3469 1.75915 3.34805C1.90299 3.34919 2.04517 3.37898 2.17738 3.43566C2.30959 3.49234 2.42919 3.57478 2.52919 3.67818L6.35878 7.50776L13.2542 0.614511C13.4573 0.411234 13.7329 0.296977 14.0203 0.296875C14.3076 0.296773 14.5833 0.410836 14.7866 0.61397C14.9898 0.817103 15.1041 1.09267 15.1042 1.38005C15.1043 1.66742 14.9902 1.94307 14.7871 2.14634L7.12578 9.80768C7.02522 9.90823 6.9058 9.98794 6.77436 10.0422C6.64293 10.0965 6.50206 10.1243 6.35986 10.124Z"/>
		</svg>


























