<svg width="236" height="54" viewBox="0 0 236 54" fill="none" xmlns="http://www.w3.org/2000/svg">
<path d="M22.9312 21.2534C22.215 23.1281 21.1243 24.0172 19.6086 24.0172C19.2095 24.008 18.8126 23.9539 18.4257 23.856V22.4003C18.4259 22.3627 18.4343 22.3254 18.4503 22.2913C18.4662 22.2571 18.4894 22.2267 18.5181 22.2023C18.5436 22.1794 18.5737 22.1622 18.6063 22.1519C18.639 22.1415 18.6735 22.1384 18.7076 22.1424C18.887 22.1639 19.0675 22.1746 19.2483 22.1746C19.8028 22.1746 20.5698 21.9397 21.0689 20.8204L21.1013 20.7283L17.7417 13.4319C17.724 13.3926 17.7164 13.3496 17.7196 13.3067C17.7229 13.2637 17.7369 13.2223 17.7603 13.1861C17.7837 13.1499 17.8159 13.1202 17.8539 13.0995C17.8917 13.0789 17.9343 13.0681 17.9775 13.0681H19.9506L22.007 18.0797L23.7307 13.0681H26.0412L22.9312 21.2534ZM17.4691 20.2676H15.4544C15.4204 20.2676 15.3867 20.261 15.3553 20.248C15.3239 20.235 15.2954 20.2161 15.2714 20.1921C15.2473 20.1681 15.2283 20.1397 15.2152 20.1085C15.2022 20.0772 15.1956 20.0436 15.1956 20.0097V15.7995C15.2061 15.6496 15.1847 15.499 15.133 15.3579C15.0811 15.2167 15.0001 15.088 14.8949 14.9802C14.7898 14.8724 14.6631 14.7879 14.523 14.7322C14.3829 14.6765 14.2326 14.651 14.0819 14.6572C13.5957 14.6616 13.1307 14.8569 12.788 15.2008L12.7186 15.2698V20.2676H10.7085C10.6399 20.2676 10.5741 20.2405 10.5255 20.1921C10.477 20.1437 10.4498 20.0781 10.4498 20.0097V15.7995C10.4603 15.6496 10.4389 15.499 10.3871 15.3579C10.3353 15.2167 10.2542 15.088 10.1491 14.9802C10.044 14.8724 9.91728 14.7879 9.77717 14.7322C9.63708 14.6765 9.48677 14.651 9.33608 14.6572C9.04967 14.6661 8.76893 14.739 8.51458 14.8706C8.26024 15.0021 8.03878 15.1889 7.86659 15.4173L7.81575 15.4817V20.2676H5.5422V13.2892C5.5422 13.2208 5.56946 13.1551 5.61799 13.1067C5.66652 13.0583 5.73235 13.0312 5.80097 13.0312H7.49228V14.2518L7.88969 13.7682C8.16745 13.4599 8.50737 13.2136 8.88721 13.0453C9.26706 12.877 9.67827 12.7906 10.0939 12.7917C10.4967 12.7627 10.9003 12.8358 11.2671 13.0041C11.6339 13.1725 11.952 13.4305 12.1919 13.7544L12.3444 13.9709L12.5385 13.7912C13.1503 13.1731 13.9783 12.815 14.849 12.7917C17.3398 12.7917 17.4645 15.0948 17.4645 15.5554V20.2676H17.4691ZM30.4497 8.83486C28.7672 5.88915 26.1546 3.5808 23.0189 2.26945C19.8832 0.958098 16.4004 0.717369 13.1131 1.58477C9.82584 2.45217 6.91865 4.37898 4.84447 7.06505C2.77029 9.75111 1.6456 13.0456 1.6456 16.4352C1.6456 19.8248 2.77029 23.1194 4.84447 25.8054C6.91865 28.4915 9.82584 30.4182 13.1131 31.2857C16.4004 32.1531 19.8832 31.9123 23.0189 30.601C26.1546 29.2897 28.7672 26.9813 30.4497 24.0356C29.3758 21.6391 28.8442 19.0365 28.8924 16.4122C28.8477 13.8027 29.3811 11.2155 30.4543 8.83486H30.4497Z" fill="#9CD116"/>
<path d="M51.9762 3.32768e-06C55.2168 -0.00172229 58.4223 0.667704 61.3898 1.96584V8.20661C58.8262 6.62526 55.8627 5.80709 52.8482 5.84849C47.3656 5.84849 41.9992 8.72816 41.9992 15.8872C41.9992 24.0046 47.9962 26.0552 52.5084 26.0552C53.6514 26.0684 54.7875 25.8767 55.8624 25.4891V15.2943C55.8624 15.2001 55.881 15.1068 55.9172 15.0197C55.9533 14.9326 56.0064 14.8535 56.0733 14.7869C56.1401 14.7202 56.2195 14.6674 56.3068 14.6313C56.3942 14.5952 56.4879 14.5767 56.5824 14.5767H62.1231V29.7328C58.966 31.0715 55.5726 31.7687 52.1417 31.7833C43.5689 31.7744 35.2913 27.1028 35.2913 15.8872C35.2913 4.80094 43.5689 3.32768e-06 51.9762 3.32768e-06Z" fill="#323232"/>
<path d="M78.2808 12.482V17.2185C75.6668 16.7635 73.1546 17.7774 72.1568 19.7802V29.6723H67.3783V13.41C67.3783 13.257 67.4379 13.1103 67.544 13.0021C67.6501 12.8939 67.794 12.8331 67.944 12.8331H71.6122V15.3411C72.7822 13.4816 75.189 12.1488 78.2879 12.4749L78.2808 12.482Z" fill="#323232"/>
<path d="M88.364 16.1448C86.2689 16.1448 84.424 17.4418 84.3551 19.7564H91.967C92.1446 18.5991 91.4704 16.1448 88.3822 16.1448H88.364ZM88.1864 12.4257C95.0226 12.4257 97.3679 17.5887 96.4834 22.4364C96.4589 22.5699 96.3877 22.6906 96.2825 22.7777C96.1772 22.8648 96.0443 22.9126 95.9071 22.913H84.3878C84.9568 25.3673 87.5811 26.3848 90.3866 26.3848C92.1551 26.401 93.9077 26.0546 95.5337 25.3673V29.1938C93.9352 29.8602 91.8401 30.2472 89.3028 30.2472C83.9093 30.2472 79.4363 27.1946 79.4363 21.3364C79.4363 14.9875 84.3696 12.4257 88.2009 12.4257H88.1864Z" fill="#323232"/>
<path d="M106.743 16.1448C104.649 16.1448 102.805 17.4418 102.737 19.7564H110.343C110.521 18.5991 109.847 16.1448 106.761 16.1448H106.743ZM106.565 12.4257C113.397 12.4257 115.744 17.5887 114.857 22.4364C114.832 22.5699 114.761 22.6906 114.656 22.7777C114.55 22.8648 114.418 22.9126 114.281 22.913H102.773C103.342 25.3673 105.964 26.3848 108.768 26.3848C110.535 26.401 112.286 26.0546 113.911 25.3673V29.1938C112.317 29.8602 110.224 30.2472 107.67 30.2472C102.28 30.2472 97.8104 27.1946 97.8104 21.3364C97.8104 14.9875 102.74 12.4257 106.569 12.4257H106.565Z" fill="#323232"/>
<path d="M126.044 12.4257C130.434 12.4257 132.836 15.4279 132.836 19.3036V29.6723H128.566C128.414 29.6723 128.269 29.6118 128.161 29.5042C128.054 29.3965 127.993 29.2505 127.993 29.0983V19.9312C127.993 17.6635 126.634 16.6152 124.752 16.6152C123.044 16.6152 121.721 17.7312 121.027 18.7545V29.6723H116.184V13.4882C116.184 13.3359 116.245 13.1899 116.352 13.0823C116.46 12.9746 116.605 12.9141 116.757 12.9141H120.468V15.0535C121.148 14.2333 122.001 13.5735 122.964 13.1211C123.928 12.6688 124.979 12.435 126.044 12.4364V12.4257Z" fill="#323232"/>
<path d="M160.971 13.0041L155.577 29.6723H150.443L147.117 18.8025L143.79 29.6723H138.588L133.437 13.7453C133.41 13.6598 133.403 13.5691 133.417 13.4804C133.432 13.3918 133.467 13.3078 133.52 13.2353C133.574 13.1628 133.644 13.1037 133.724 13.0629C133.805 13.0221 133.894 13.0008 133.985 13.0005H138.381L141.429 24.4236L144.791 13.0005H149.413L152.74 24.4236L155.709 13.4297C155.742 13.3088 155.814 13.202 155.914 13.1257C156.014 13.0495 156.137 13.008 156.263 13.0076H160.971V13.0041Z" fill="#323232"/>
<path d="M165.952 24.6933C165.952 25.9534 167.109 26.7624 168.58 26.7624C169.969 26.7956 171.32 26.3078 172.366 25.395V22.7639C171.428 22.5312 170.468 22.4015 169.501 22.3773C167.711 22.3773 165.959 22.9715 165.959 24.6898L165.952 24.6933ZM178.435 26.5154C178.529 26.5154 178.625 26.5154 178.725 26.5154C178.805 26.5095 178.885 26.5201 178.96 26.5466C179.036 26.5731 179.104 26.615 179.163 26.6694C179.22 26.7239 179.267 26.7899 179.298 26.8633C179.33 26.9365 179.346 27.0156 179.345 27.0953V29.576C178.479 29.8898 177.566 30.0556 176.645 30.0665C174.926 30.0665 173.63 29.4364 172.928 28.1764C171.211 29.5558 169.065 30.2881 166.862 30.2454C163.708 30.2454 160.971 28.4234 160.971 25.0943C160.971 20.8165 165.004 19.4849 168.369 19.4849C169.714 19.4853 171.054 19.633 172.366 19.9252V19.3309C172.366 17.6485 171.034 16.4922 168.402 16.4922C166.628 16.5156 164.872 16.8438 163.209 17.4623C163.123 17.4934 163.03 17.5031 162.939 17.4907C162.848 17.4783 162.761 17.4442 162.686 17.3911C162.611 17.3381 162.55 17.2678 162.507 17.1861C162.465 17.1044 162.443 17.0137 162.443 16.9218V13.5461C164.548 12.8458 166.746 12.4681 168.964 12.4257C174.013 12.4257 177.239 14.4947 177.239 20.029V25.3986C177.239 26.2755 177.801 26.519 178.432 26.519L178.435 26.5154Z" fill="#323232"/>
<path d="M192.494 13.0041H197.145L189.685 31.6549C187.792 36.3008 185.167 37.7208 182.433 37.7208C181.546 37.6956 180.664 37.5672 179.807 37.3383V33.3546C180.462 33.5027 181.131 33.5834 181.803 33.5954C183.553 33.5954 184.887 32.4162 185.796 29.9552L185.832 29.8843L178.251 13.8115C178.21 13.7246 178.191 13.6289 178.198 13.5332C178.204 13.4375 178.235 13.345 178.287 13.2642C178.339 13.1833 178.411 13.1168 178.495 13.0707C178.581 13.0246 178.676 13.0005 178.773 13.0005H183.02L187.925 24.2328L191.954 13.3724C191.994 13.2632 192.068 13.1691 192.165 13.1026C192.261 13.0361 192.376 13.0005 192.494 13.0005V13.0041Z" fill="#323232"/>
<g clip-path="url(#clip0)">
<path d="M234.512 19.8926L209.648 5.38738C209.381 5.23214 209.078 5.15054 208.77 5.15076C208.462 5.15097 208.159 5.233 207.892 5.38861C207.626 5.54422 207.404 5.76796 207.25 6.03739C207.096 6.30682 207.014 6.61249 207.014 6.92375V35.9342C207.014 36.2455 207.096 36.5511 207.25 36.8205C207.404 37.0899 207.626 37.3137 207.892 37.4693C208.159 37.6249 208.462 37.707 208.77 37.7072C209.078 37.7074 209.381 37.6258 209.648 37.4705L234.512 22.9654C234.778 22.8092 234.999 22.5851 235.153 22.3155C235.307 22.0459 235.388 21.7401 235.388 21.4289C235.388 21.1177 235.307 20.812 235.153 20.5424C234.999 20.2727 234.778 20.0486 234.512 19.8926Z" fill="#9CD116"/>
</g>
<path d="M67.8662 46.1182C67.8662 47.3486 67.5903 48.3276 67.0386 49.0552C66.4917 49.7827 65.7373 50.1465 64.7754 50.1465C63.8477 50.1465 63.125 49.812 62.6074 49.1431L62.5195 50H60.9082V38.75H62.688V42.8369C63.2007 42.2314 63.8916 41.9287 64.7607 41.9287C65.7275 41.9287 66.4868 42.2876 67.0386 43.0054C67.5903 43.7231 67.8662 44.7266 67.8662 46.0156V46.1182ZM66.0864 45.9644C66.0864 45.105 65.9351 44.4604 65.6323 44.0308C65.3296 43.6011 64.8901 43.3862 64.314 43.3862C63.5425 43.3862 63.0005 43.7231 62.688 44.397V47.6636C63.0054 48.3521 63.5522 48.6963 64.3286 48.6963C64.8853 48.6963 65.3149 48.4888 65.6177 48.0737C65.9204 47.6587 66.0767 47.0312 66.0864 46.1914V45.9644ZM73.5132 43.7012C73.2788 43.6621 73.0371 43.6426 72.7881 43.6426C71.9727 43.6426 71.4233 43.9551 71.1401 44.5801V50H69.3604V42.0752H71.0596L71.1035 42.9614C71.5332 42.2729 72.1289 41.9287 72.8906 41.9287C73.1445 41.9287 73.3545 41.9629 73.5205 42.0312L73.5132 43.7012ZM79.1528 50C79.0747 49.8486 79.0063 49.6021 78.9478 49.2603C78.3813 49.8511 77.688 50.1465 76.8677 50.1465C76.0718 50.1465 75.4224 49.9194 74.9194 49.4653C74.4165 49.0112 74.165 48.4497 74.165 47.7808C74.165 46.936 74.4775 46.2891 75.1025 45.8398C75.7324 45.3857 76.6309 45.1587 77.7979 45.1587H78.8892V44.6387C78.8892 44.2285 78.7744 43.9014 78.5449 43.6572C78.3154 43.4082 77.9663 43.2837 77.4976 43.2837C77.0923 43.2837 76.7603 43.3862 76.5015 43.5913C76.2427 43.7915 76.1133 44.0479 76.1133 44.3604H74.3335C74.3335 43.9258 74.4775 43.5205 74.7656 43.1445C75.0537 42.7637 75.4443 42.4658 75.9375 42.251C76.4355 42.0361 76.9897 41.9287 77.6001 41.9287C78.5278 41.9287 79.2676 42.1631 79.8193 42.6318C80.3711 43.0957 80.6543 43.75 80.6689 44.5947V48.1689C80.6689 48.8818 80.769 49.4507 80.9692 49.8755V50H79.1528ZM77.1973 48.7183C77.5488 48.7183 77.8784 48.6328 78.186 48.4619C78.4985 48.291 78.7329 48.0615 78.8892 47.7734V46.2793H77.9297C77.2705 46.2793 76.7749 46.394 76.4429 46.6235C76.1108 46.853 75.9448 47.1777 75.9448 47.5977C75.9448 47.9395 76.0571 48.2129 76.2817 48.418C76.5112 48.6182 76.8164 48.7183 77.1973 48.7183ZM84.1846 42.0752L84.2358 42.9907C84.8218 42.2827 85.5908 41.9287 86.543 41.9287C88.1934 41.9287 89.0332 42.8735 89.0625 44.7632V50H87.2827V44.8657C87.2827 44.3628 87.1729 43.9917 86.9531 43.7524C86.7383 43.5083 86.3843 43.3862 85.8911 43.3862C85.1733 43.3862 84.6387 43.7109 84.2871 44.3604V50H82.5073V42.0752H84.1846ZM90.5493 45.979C90.5493 44.7583 90.8325 43.7793 91.3989 43.042C91.9653 42.2998 92.7246 41.9287 93.6768 41.9287C94.5166 41.9287 95.1953 42.2217 95.7129 42.8076V38.75H97.4927V50H95.8813L95.7935 49.1797C95.2612 49.8242 94.5508 50.1465 93.6621 50.1465C92.7344 50.1465 91.9824 49.7729 91.4062 49.0259C90.835 48.2788 90.5493 47.2632 90.5493 45.979ZM92.3291 46.1328C92.3291 46.9385 92.4829 47.5684 92.7905 48.0225C93.103 48.4717 93.5449 48.6963 94.1162 48.6963C94.8438 48.6963 95.376 48.3716 95.7129 47.7222V44.3384C95.3857 43.7036 94.8584 43.3862 94.1309 43.3862C93.5547 43.3862 93.1104 43.6157 92.7979 44.0747C92.4854 44.5288 92.3291 45.2148 92.3291 46.1328ZM106.34 48.7256C106.785 48.7256 107.153 48.5962 107.446 48.3374C107.739 48.0786 107.896 47.7588 107.915 47.3779H109.592C109.573 47.8711 109.419 48.3325 109.131 48.7622C108.843 49.187 108.452 49.5239 107.959 49.7729C107.466 50.022 106.934 50.1465 106.362 50.1465C105.254 50.1465 104.375 49.7876 103.726 49.0698C103.076 48.3521 102.751 47.3608 102.751 46.0962V45.9131C102.751 44.707 103.074 43.7427 103.718 43.02C104.363 42.2925 105.242 41.9287 106.355 41.9287C107.297 41.9287 108.064 42.2046 108.655 42.7563C109.25 43.3032 109.563 44.0234 109.592 44.917H107.915C107.896 44.4629 107.739 44.0894 107.446 43.7964C107.158 43.5034 106.79 43.3569 106.34 43.3569C105.764 43.3569 105.32 43.5669 105.007 43.9868C104.695 44.4019 104.536 45.0342 104.531 45.8838V46.1694C104.531 47.0288 104.685 47.6709 104.993 48.0957C105.305 48.5156 105.754 48.7256 106.34 48.7256ZM110.603 45.9644C110.603 45.188 110.757 44.4897 111.064 43.8696C111.372 43.2446 111.804 42.7661 112.361 42.4341C112.917 42.0972 113.557 41.9287 114.28 41.9287C115.349 41.9287 116.216 42.2729 116.88 42.9614C117.549 43.6499 117.91 44.563 117.964 45.7007L117.971 46.1182C117.971 46.8994 117.82 47.5977 117.517 48.2129C117.219 48.8281 116.79 49.3042 116.228 49.6411C115.671 49.978 115.027 50.1465 114.294 50.1465C113.176 50.1465 112.28 49.7754 111.606 49.0332C110.938 48.2861 110.603 47.2925 110.603 46.0522V45.9644ZM112.383 46.1182C112.383 46.9336 112.551 47.5732 112.888 48.0371C113.225 48.4961 113.694 48.7256 114.294 48.7256C114.895 48.7256 115.361 48.4912 115.693 48.0225C116.03 47.5537 116.199 46.8677 116.199 45.9644C116.199 45.1636 116.025 44.5288 115.679 44.0601C115.337 43.5913 114.871 43.3569 114.28 43.3569C113.699 43.3569 113.237 43.5889 112.896 44.0527C112.554 44.5117 112.383 45.2002 112.383 46.1182ZM121.128 42.0752L121.179 42.9907C121.765 42.2827 122.534 41.9287 123.486 41.9287C125.137 41.9287 125.977 42.8735 126.006 44.7632V50H124.226V44.8657C124.226 44.3628 124.116 43.9917 123.896 43.7524C123.682 43.5083 123.328 43.3862 122.834 43.3862C122.117 43.3862 121.582 43.7109 121.23 44.3604V50H119.451V42.0752H121.128ZM132.268 47.8467C132.268 47.5293 132.136 47.2876 131.873 47.1216C131.614 46.9556 131.182 46.8091 130.576 46.6821C129.971 46.5552 129.465 46.394 129.06 46.1987C128.171 45.769 127.727 45.1465 127.727 44.3311C127.727 43.6475 128.015 43.0762 128.591 42.6172C129.167 42.1582 129.9 41.9287 130.789 41.9287C131.736 41.9287 132.5 42.1631 133.081 42.6318C133.667 43.1006 133.96 43.7085 133.96 44.4556H132.18C132.18 44.1138 132.053 43.8306 131.799 43.606C131.545 43.3765 131.208 43.2617 130.789 43.2617C130.398 43.2617 130.078 43.3521 129.829 43.5327C129.585 43.7134 129.463 43.9551 129.463 44.2578C129.463 44.5312 129.578 44.7437 129.807 44.895C130.037 45.0464 130.5 45.2002 131.199 45.3564C131.897 45.5078 132.444 45.6909 132.839 45.9058C133.24 46.1157 133.535 46.3696 133.726 46.6675C133.921 46.9653 134.019 47.3267 134.019 47.7515C134.019 48.4644 133.723 49.043 133.132 49.4873C132.542 49.9268 131.768 50.1465 130.811 50.1465C130.161 50.1465 129.583 50.0293 129.075 49.7949C128.567 49.5605 128.171 49.2383 127.888 48.8281C127.605 48.418 127.463 47.9761 127.463 47.5024H129.192C129.216 47.9224 129.375 48.2471 129.668 48.4766C129.961 48.7012 130.349 48.8135 130.833 48.8135C131.301 48.8135 131.658 48.7256 131.902 48.5498C132.146 48.3691 132.268 48.1348 132.268 47.8467ZM140.376 49.2236C139.854 49.8389 139.111 50.1465 138.149 50.1465C137.29 50.1465 136.638 49.895 136.194 49.3921C135.754 48.8892 135.535 48.1616 135.535 47.2095V42.0752H137.314V47.1875C137.314 48.1934 137.732 48.6963 138.567 48.6963C139.431 48.6963 140.015 48.3862 140.317 47.7661V42.0752H142.097V50H140.42L140.376 49.2236ZM145.803 50H144.023V38.75H145.803V50ZM149.978 40.1489V42.0752H151.377V43.3936H149.978V47.8174C149.978 48.1201 150.037 48.3398 150.154 48.4766C150.276 48.6084 150.491 48.6743 150.798 48.6743C151.003 48.6743 151.211 48.6499 151.421 48.6011V49.978C151.016 50.0903 150.625 50.1465 150.249 50.1465C148.882 50.1465 148.198 49.3921 148.198 47.8833V43.3936H146.895V42.0752H148.198V40.1489H149.978ZM157.478 50C157.4 49.8486 157.332 49.6021 157.273 49.2603C156.707 49.8511 156.013 50.1465 155.193 50.1465C154.397 50.1465 153.748 49.9194 153.245 49.4653C152.742 49.0112 152.49 48.4497 152.49 47.7808C152.49 46.936 152.803 46.2891 153.428 45.8398C154.058 45.3857 154.956 45.1587 156.123 45.1587H157.214V44.6387C157.214 44.2285 157.1 43.9014 156.87 43.6572C156.641 43.4082 156.292 43.2837 155.823 43.2837C155.417 43.2837 155.085 43.3862 154.827 43.5913C154.568 43.7915 154.438 44.0479 154.438 44.3604H152.659C152.659 43.9258 152.803 43.5205 153.091 43.1445C153.379 42.7637 153.77 42.4658 154.263 42.251C154.761 42.0361 155.315 41.9287 155.925 41.9287C156.853 41.9287 157.593 42.1631 158.145 42.6318C158.696 43.0957 158.979 43.75 158.994 44.5947V48.1689C158.994 48.8818 159.094 49.4507 159.294 49.8755V50H157.478ZM155.522 48.7183C155.874 48.7183 156.204 48.6328 156.511 48.4619C156.824 48.291 157.058 48.0615 157.214 47.7734V46.2793H156.255C155.596 46.2793 155.1 46.394 154.768 46.6235C154.436 46.853 154.27 47.1777 154.27 47.5977C154.27 47.9395 154.382 48.2129 154.607 48.418C154.836 48.6182 155.142 48.7183 155.522 48.7183ZM162.51 42.0752L162.561 42.9907C163.147 42.2827 163.916 41.9287 164.868 41.9287C166.519 41.9287 167.358 42.8735 167.388 44.7632V50H165.608V44.8657C165.608 44.3628 165.498 43.9917 165.278 43.7524C165.063 43.5083 164.709 43.3862 164.216 43.3862C163.499 43.3862 162.964 43.7109 162.612 44.3604V50H160.833V42.0752H162.51ZM171.438 40.1489V42.0752H172.837V43.3936H171.438V47.8174C171.438 48.1201 171.497 48.3398 171.614 48.4766C171.736 48.6084 171.951 48.6743 172.258 48.6743C172.463 48.6743 172.671 48.6499 172.881 48.6011V49.978C172.476 50.0903 172.085 50.1465 171.709 50.1465C170.342 50.1465 169.658 49.3921 169.658 47.8833V43.3936H168.354V42.0752H169.658V40.1489H171.438Z" fill="#323232"/>
<defs>
<clipPath id="clip0">
<rect width="28.6764" height="33.0887" fill="white" transform="translate(207 5)"/>
</clipPath>
</defs>
</svg>
