<svg width="85" height="32" viewBox="0 0 85 32" fill="none" xmlns="http://www.w3.org/2000/svg">
<path d="M15.3519 19.3213C14.8505 20.6518 14.0871 21.2828 13.0261 21.2828C12.7467 21.2763 12.4689 21.2379 12.198 21.1684V20.1353C12.1982 20.1086 12.2041 20.0822 12.2153 20.0579C12.2264 20.0337 12.2426 20.0121 12.2627 19.9948C12.2806 19.9786 12.3016 19.9664 12.3245 19.9591C12.3474 19.9517 12.3715 19.9494 12.3954 19.9523C12.521 19.9675 12.6473 19.9751 12.7738 19.9751C13.162 19.9751 13.6989 19.8084 14.0483 19.0141L14.0709 18.9487L11.7192 13.7707C11.7068 13.7428 11.7016 13.7122 11.7038 13.6818C11.7061 13.6513 11.7159 13.6219 11.7323 13.5962C11.7487 13.5705 11.7712 13.5494 11.7977 13.5347C11.8242 13.5201 11.854 13.5124 11.8843 13.5124H13.2655L14.7049 17.069L15.9115 13.5124H17.5289L15.3519 19.3213ZM11.5284 18.6218H10.1181C10.0943 18.6218 10.0707 18.6171 10.0487 18.6079C10.0268 18.5987 10.0069 18.5852 9.99 18.5682C9.97316 18.5512 9.95983 18.531 9.95072 18.5088C9.9416 18.4866 9.93693 18.4628 9.93693 18.4388V15.4509C9.94428 15.3445 9.92935 15.2376 9.89313 15.1375C9.85683 15.0373 9.80009 14.9459 9.72649 14.8694C9.6529 14.7929 9.56422 14.7329 9.46612 14.6935C9.3681 14.6539 9.26288 14.6358 9.15735 14.6402C8.81703 14.6434 8.49157 14.7819 8.25165 15.026L8.20309 15.075V18.6218H6.79601C6.74797 18.6218 6.7019 18.6025 6.66793 18.5682C6.63395 18.5339 6.61487 18.4873 6.61487 18.4388V15.4509C6.62224 15.3445 6.60731 15.2376 6.57104 15.1375C6.53478 15.0373 6.47802 14.9459 6.40444 14.8694C6.33086 14.7929 6.24214 14.7329 6.14407 14.6935C6.046 14.6539 5.94079 14.6358 5.8353 14.6402C5.63481 14.6465 5.43829 14.6983 5.26025 14.7917C5.08221 14.885 4.92719 15.0176 4.80666 15.1796L4.77107 15.2254V18.6218H3.17959V13.6694C3.17959 13.6208 3.19867 13.5742 3.23264 13.5399C3.26661 13.5055 3.31269 13.4863 3.36073 13.4863H4.54464V14.3525L4.82283 14.0093C5.01726 13.7905 5.25521 13.6158 5.52109 13.4963C5.78698 13.3769 6.07483 13.3155 6.3658 13.3163C6.64774 13.2957 6.93024 13.3476 7.18701 13.4671C7.44378 13.5865 7.66648 13.7696 7.83436 13.9995L7.94111 14.1532L8.07697 14.0256C8.50528 13.587 9.08483 13.3328 9.69433 13.3163C11.4379 13.3163 11.5252 14.9508 11.5252 15.2776V18.6218H11.5284ZM20.6148 10.5082C19.4371 8.41772 17.6083 6.77954 15.4133 5.8489C13.2183 4.91826 10.7803 4.74742 8.47924 5.363C6.17813 5.97857 4.1431 7.34599 2.69118 9.25223C1.23925 11.1585 0.451965 13.4965 0.451965 15.902C0.451965 18.3076 1.23925 20.6456 2.69118 22.5518C4.1431 24.4581 6.17813 25.8255 8.47924 26.4411C10.7803 27.0567 13.2183 26.8858 15.4133 25.9552C17.6083 25.0245 19.4371 23.3863 20.6148 21.2958C19.8631 19.5951 19.491 17.7481 19.5247 15.8857C19.4935 14.0338 19.8668 12.1977 20.618 10.5082H20.6148Z" fill="#9CD116"/>
<path d="M42.9762 3.32768e-06C46.2168 -0.00172229 49.4223 0.667704 52.3898 1.96584V8.20661C49.8262 6.62525 46.8627 5.80709 43.8482 5.84849C38.3656 5.84849 32.9992 8.72816 32.9992 15.8872C32.9992 24.0046 38.9962 26.0552 43.5084 26.0552C44.6514 26.0684 45.7875 25.8767 46.8624 25.4891V15.2943C46.8624 15.2001 46.881 15.1068 46.9172 15.0197C46.9533 14.9326 47.0064 14.8535 47.0733 14.7869C47.1401 14.7202 47.2195 14.6674 47.3068 14.6313C47.3942 14.5952 47.4879 14.5767 47.5824 14.5767H53.1231V29.7328C49.966 31.0715 46.5726 31.7687 43.1417 31.7833C34.5689 31.7744 26.2913 27.1028 26.2913 15.8872C26.2913 4.80094 34.5689 3.32768e-06 42.9762 3.32768e-06Z" fill="#323232"/>
<path d="M84.0261 14.4747L63.2166 2.20023C62.9931 2.06887 62.7398 1.99982 62.482 2C62.2242 2.00018 61.9709 2.06959 61.7477 2.20128C61.5244 2.33296 61.3389 2.52228 61.2098 2.75028C61.0807 2.97827 61.0126 3.23693 61.0121 3.50033V28.0492C61.0126 28.3127 61.0807 28.5713 61.2098 28.7993C61.3389 29.0273 61.5244 29.2166 61.7477 29.3483C61.9709 29.48 62.2242 29.5494 62.482 29.5496C62.7398 29.5498 62.9931 29.4807 63.2166 29.3493L84.0261 17.0749C84.2491 16.9428 84.4342 16.7532 84.5629 16.525C84.6916 16.2968 84.7593 16.0381 84.7593 15.7748C84.7593 15.5114 84.6916 15.2527 84.5629 15.0245C84.4342 14.7964 84.2491 14.6067 84.0261 14.4747Z" fill="#9CD116"/>
</svg>
