<svg width="94" height="32" viewBox="0 0 94 32" fill="none" xmlns="http://www.w3.org/2000/svg">
<path d="M21.9312 20.1801C21.215 22.0549 20.1244 22.9439 18.6087 22.9439C18.2096 22.9347 17.8127 22.8807 17.4257 22.7827V21.327C17.4259 21.2894 17.4344 21.2522 17.4503 21.218C17.4662 21.1839 17.4894 21.1534 17.5182 21.129C17.5436 21.1061 17.5737 21.089 17.6063 21.0787C17.639 21.0683 17.6735 21.0651 17.7076 21.0691C17.8871 21.0906 18.0676 21.1013 18.2483 21.1013C18.8028 21.1013 19.5698 20.8664 20.0689 19.7471L20.1013 19.655L16.7417 12.3586C16.724 12.3193 16.7165 12.2763 16.7196 12.2334C16.7229 12.1904 16.7369 12.149 16.7603 12.1128C16.7838 12.0767 16.8159 12.0469 16.8539 12.0262C16.8917 12.0056 16.9343 11.9948 16.9775 11.9948H18.9506L21.007 17.0064L22.7307 11.9948H25.0412L21.9312 20.1801ZM16.4691 19.1944H14.4544C14.4204 19.1944 14.3867 19.1877 14.3553 19.1748C14.3239 19.1617 14.2955 19.1428 14.2714 19.1188C14.2473 19.0949 14.2283 19.0664 14.2153 19.0352C14.2023 19.0039 14.1956 18.9703 14.1956 18.9365V14.7262C14.2061 14.5763 14.1848 14.4258 14.133 14.2847C14.0812 14.1435 14.0001 14.0147 13.895 13.9069C13.7898 13.7991 13.6631 13.7146 13.523 13.659C13.383 13.6033 13.2327 13.5777 13.0819 13.5839C12.5957 13.5884 12.1308 13.7837 11.788 14.1275L11.7187 14.1966V19.1944H9.70856C9.63993 19.1944 9.5741 19.1672 9.52557 19.1188C9.47704 19.0704 9.44978 19.0049 9.44978 18.9365V14.7262C9.46031 14.5763 9.43897 14.4258 9.38717 14.2847C9.33537 14.1435 9.25427 14.0147 9.14916 13.9069C9.04405 13.7991 8.91731 13.7146 8.7772 13.659C8.63711 13.6033 8.4868 13.5777 8.33611 13.5839C8.0497 13.5929 7.76896 13.6658 7.51461 13.7973C7.26027 13.9288 7.03881 14.1157 6.86662 14.344L6.81578 14.4085V19.1944H4.54223V12.2159C4.54223 12.1475 4.56949 12.0818 4.61802 12.0334C4.66655 11.985 4.73238 11.9579 4.801 11.9579H6.49231V13.1785L6.88972 12.6949C7.16748 12.3867 7.5074 12.1404 7.88724 11.972C8.26709 11.8038 8.6783 11.7173 9.09396 11.7184C9.49674 11.6894 9.90031 11.7625 10.2671 11.9309C10.6339 12.0992 10.9521 12.3572 11.1919 12.6811L11.3444 12.8976L11.5385 12.7179C12.1504 12.0999 12.9783 11.7417 13.849 11.7184C16.3398 11.7184 16.4645 14.0215 16.4645 14.4821V19.1944H16.4691ZM29.4497 7.76159C27.7672 4.81588 25.1547 2.50753 22.019 1.19618C18.8832 -0.115174 15.4004 -0.355904 12.1132 0.511495C8.82587 1.3789 5.91868 3.30571 3.8445 5.99177C1.77032 8.67784 0.64563 11.9723 0.64563 15.3619C0.64563 18.7516 1.77032 22.0461 3.8445 24.7321C5.91868 27.4182 8.82587 29.345 12.1132 30.2125C15.4004 31.0799 18.8832 30.839 22.019 29.5278C25.1547 28.2164 27.7672 25.908 29.4497 22.9623C28.3758 20.5658 27.8443 17.9632 27.8924 15.3389C27.8478 12.7294 28.3811 10.1422 29.4543 7.76159H29.4497Z" fill="#9CD116"/>
<path d="M52.9762 3.32768e-06C56.2168 -0.00172229 59.4223 0.667704 62.3898 1.96584V8.20661C59.8262 6.62525 56.8627 5.80709 53.8482 5.84849C48.3656 5.84849 42.9992 8.72816 42.9992 15.8872C42.9992 24.0046 48.9962 26.0552 53.5084 26.0552C54.6514 26.0684 55.7875 25.8767 56.8624 25.4891V15.2943C56.8624 15.2001 56.881 15.1068 56.9172 15.0197C56.9533 14.9326 57.0064 14.8535 57.0733 14.7869C57.1401 14.7202 57.2195 14.6674 57.3068 14.6313C57.3942 14.5952 57.4879 14.5767 57.5824 14.5767H63.1231V29.7328C59.966 31.0715 56.5726 31.7687 53.1417 31.7833C44.5689 31.7744 36.2913 27.1028 36.2913 15.8872C36.2913 4.80094 44.5689 3.32768e-06 52.9762 3.32768e-06Z" fill="#323232"/>
<path d="M93.0261 14.4747L72.2166 2.20023C71.9931 2.06887 71.7398 1.99982 71.482 2C71.2242 2.00018 70.9709 2.06959 70.7477 2.20128C70.5244 2.33296 70.3389 2.52228 70.2098 2.75028C70.0807 2.97827 70.0126 3.23693 70.0121 3.50033V28.0492C70.0126 28.3127 70.0807 28.5713 70.2098 28.7993C70.3389 29.0273 70.5244 29.2166 70.7477 29.3483C70.9709 29.48 71.2242 29.5494 71.482 29.5496C71.7398 29.5498 71.9931 29.4807 72.2166 29.3493L93.0261 17.0749C93.2491 16.9428 93.4342 16.7532 93.5629 16.525C93.6916 16.2968 93.7593 16.0381 93.7593 15.7748C93.7593 15.5114 93.6916 15.2527 93.5629 15.0245C93.4342 14.7964 93.2491 14.6067 93.0261 14.4747Z" fill="#9CD116"/>
</svg>
