<svg class="icon icon-tg" xmlns="http://www.w3.org/2000/svg" width="74" height="74" id="icon-tg" viewBox="0 0 34 29">
                            <path d="M33.3342 0.70374C32.7873 0.217311 32.0098 0.0552111 31.3052 0.280604L1.40989 9.84554C0.595148 10.1062 0.0426479 10.8121 0.00233932 11.6437C-0.0379029 12.4754 0.443875 13.2286 1.22973 13.5624L7.23319 16.1118L24.9085 6.59052C25.3403 6.35797 25.8821 6.46664 26.1835 6.84582C26.4851 7.22513 26.4558 7.76131 26.1147 8.10756L15.0954 19.2905L12.8355 27.2154L18.2596 23.2733L24.6737 28.3676C25.0473 28.6645 25.5039 28.8193 25.9695 28.8193C26.1912 28.8192 26.415 28.7842 26.6327 28.7125C27.3077 28.4903 27.8082 27.9556 27.9713 27.2821L33.9456 2.62851C34.1154 1.92771 33.8812 1.19017 33.3342 0.70374Z"></path>
                        </svg>