<svg xmlns="http://www.w3.org/2000/svg" width="74" height="74" id="icon-intro-1" fill="#74C044" viewBox="0 0 30 30">
<path d="M7.96716 20.3577C7.86913 20.2692 7.69616 20.1637 7.43267 20.1637H4.82218V18.9462H7.06617C7.28016 18.9462 7.47615 18.8672 7.61964 18.7237C7.75863 18.5862 7.83515 18.4027 7.83515 18.2082C7.83515 18.0062 7.76214 17.8257 7.60066 17.6662C7.45869 17.5372 7.27418 17.4697 7.06617 17.4697H4.80619L4.77519 16.4517H7.33265C7.54212 16.4517 7.73566 16.3727 7.87915 16.2292C8.01813 16.0917 8.09466 15.9067 8.09466 15.7137C8.09466 15.5147 8.01866 15.3282 7.86017 15.1717C7.71814 15.0427 7.53515 14.9752 7.33265 14.9752H4.54967C4.16319 14.9752 3.83618 15.1172 3.60169 15.3867C3.40417 15.6167 3.30017 15.9127 3.30017 16.2407V20.3816C3.30017 20.7067 3.40118 20.9911 3.60315 21.2297C3.76417 21.4156 4.06012 21.6382 4.54967 21.6382H7.43261C7.71263 21.6382 7.8911 21.5152 7.98063 21.4227C8.12413 21.2851 8.20165 21.0992 8.20165 20.8997C8.20165 20.7001 8.12565 20.5142 7.96716 20.3577Z"/>
<path d="M14.1276 18.9972C14.0176 18.8207 13.8476 18.7032 13.6381 18.6567C13.5781 18.6437 13.5196 18.6377 13.4611 18.6377L13.2016 18.6687L13.0801 18.7377C12.8836 18.8508 12.7521 19.0407 12.7141 19.2578C12.6276 19.6533 12.4811 19.9258 12.2716 20.0837C12.0856 20.2227 11.8246 20.2933 11.4951 20.2933C11.0556 20.2933 10.7347 20.1557 10.4832 19.8598C10.1917 19.5168 10.0437 18.9953 10.0437 18.3083C10.0437 17.6388 10.1931 17.1203 10.4817 16.7734C10.7451 16.4674 11.0676 16.3239 11.4951 16.3239C11.8306 16.3239 12.0911 16.3929 12.2921 16.5334C12.4986 16.6784 12.6276 16.8979 12.6861 17.1939C12.7386 17.4929 12.9016 17.6554 13.0126 17.7284C13.1371 17.8164 13.282 17.8634 13.4316 17.8634L13.6001 17.8444C13.7906 17.8019 13.9576 17.6919 14.0746 17.5249C14.1876 17.3564 14.2311 17.1604 14.1991 16.9374C14.0861 16.3339 13.8166 15.8404 13.3906 15.4669C12.9086 15.0554 12.2701 14.8474 11.4951 14.8474C10.6076 14.8474 9.87967 15.1799 9.33318 15.8334C8.79418 16.4664 8.52167 17.2999 8.52167 18.3089C8.52167 19.3404 8.79565 20.1794 9.33165 20.7979C9.87663 21.4439 10.6046 21.7703 11.4951 21.7703C12.2731 21.7703 12.9131 21.5448 13.3966 21.1008C13.8011 20.7349 14.0791 20.2378 14.2271 19.6214C14.2931 19.3267 14.2051 19.1127 14.1276 18.9972Z"/>
<path d="M20.27 15.9503C19.7075 15.2163 18.9165 14.8458 17.9145 14.8458C16.9065 14.8464 16.111 15.2188 15.5475 15.9568C15.0845 16.5808 14.85 17.3718 14.85 18.3078C14.85 19.2438 15.0845 20.0332 15.55 20.6527C16.1096 21.3937 16.905 21.7687 17.9145 21.7687C18.9165 21.7687 19.709 21.3937 20.2685 20.6552C20.746 20.0342 20.9865 19.2447 20.9865 18.3072C20.9865 17.3712 20.7465 16.5788 20.27 15.9503ZM19.0765 19.7607C18.81 20.1282 18.4396 20.2997 17.915 20.2997C17.3861 20.2997 17.017 20.1282 16.7551 19.7637C16.5016 19.4092 16.3726 18.9202 16.3726 18.3077C16.3726 17.6912 16.5016 17.2017 16.7566 16.8502C17.0171 16.4857 17.3866 16.3142 17.9151 16.3142C18.4396 16.3142 18.8086 16.4857 19.0766 16.8547C19.3341 17.2077 19.4646 17.6972 19.4646 18.3077C19.4645 18.9142 19.3325 19.4048 19.0765 19.7607Z"/>
<path d="M29.3364 0.491303C29.2449 0.242282 29.0264 0.0592963 28.7599 0.0107813L28.6334 0.000293169C28.4124 0.000293169 28.2044 0.0952724 28.0619 0.260798C27.5764 0.827802 26.2324 1.06481 24.9284 1.29479C23.0884 1.62027 20.791 2.05527 19.423 3.65175C18.69 2.01724 17.1655 0.695265 15.824 0.0703118C15.5825 -0.0427141 15.2996 -0.0181636 15.08 0.132831C14.8645 0.283825 14.7385 0.540345 14.7595 0.807822C14.796 1.2768 14.182 2.02978 13.5885 2.7578C12.8516 3.66031 11.9711 4.76279 11.755 6.01223C5.2422 6.14424 0.000305176 11.4552 0.000305176 18.0001C0.000305176 24.6275 5.37275 29.9999 12.0001 29.9999C18.6275 29.9999 24 24.6275 24 18.0001C24 15.7266 23.356 13.6086 22.258 11.7966C22.756 11.9261 23.2815 11.9986 23.8325 11.9986C25.9379 11.9986 27.5569 11.2136 28.6429 9.66216C30.5749 6.90571 30.0939 2.57428 29.3364 0.491303ZM14.7505 3.70525C15.2471 3.09676 15.7275 2.50878 16.0085 1.90029C17.0945 2.64577 18.105 3.82677 18.3255 5.07726C18.47 5.89727 18.2435 6.68523 17.686 7.43223C17.3515 7.2517 17.0075 7.08571 16.655 6.93724C16.7835 6.31023 16.866 5.61174 16.766 4.76578C16.7175 4.35428 16.3445 4.06026 15.933 4.1093C15.5225 4.15981 15.228 4.53229 15.2765 4.94232C15.343 5.50429 15.301 5.99283 15.2205 6.4508C14.594 6.27631 13.951 6.14277 13.2875 6.07182C13.4661 5.35774 14.0101 4.61373 14.7505 3.70525ZM22.5 18.0001C22.5 23.7895 17.7895 28.4999 12.0001 28.4999C6.21074 28.4999 1.50028 23.7895 1.50028 18.0001C1.50028 12.2107 6.21074 7.5002 12.0001 7.5002C17.7895 7.5002 22.5 12.2107 22.5 18.0001ZM27.4149 8.80272C26.6269 9.92771 25.4219 10.4992 23.8325 10.4992C22.7 10.4992 21.696 10.1537 20.9535 9.51627C21.5195 9.08877 22.164 8.73827 22.8739 8.4763L23.032 8.41478C24.3245 7.96379 25.5329 7.97527 25.6274 7.9973L25.7885 8.01482C26.1415 8.01482 26.4425 7.77482 26.5209 7.42883C26.5949 7.09485 26.4329 6.76234 26.1454 6.60583C26.8494 5.97033 27.4059 5.23183 27.8079 4.39987C27.8943 4.21987 27.9059 4.01585 27.8399 3.82689C27.7739 3.63786 27.6379 3.48541 27.4574 3.39939C27.0994 3.22941 26.6299 3.39037 26.4564 3.7479C25.8589 4.98591 24.8614 5.93336 23.4214 6.62634C23.5099 6.00086 23.4124 5.37983 23.1299 4.81435C22.9515 4.45383 22.4744 4.30588 22.1259 4.47738C21.9459 4.56686 21.8119 4.72037 21.748 4.91086C21.6834 5.10286 21.699 5.30636 21.7884 5.48384C22.2394 6.38781 21.67 7.21233 21.4494 7.48033C20.9559 7.72631 20.491 8.01336 20.0609 8.33732C19.8054 7.7808 19.7079 7.1668 19.7789 6.53283C20.0959 3.67337 22.5689 3.23685 25.1893 2.77385C26.3084 2.57587 27.3763 2.38837 28.2113 1.97687C28.7154 4.12676 28.6744 7.00374 27.4149 8.80272Z"/>
</svg>