<svg fill="#74C044" xmlns="http://www.w3.org/2000/svg" width="74" height="74"  id="icon-intro-2" viewBox="0 0 30 30">
<path d="M14.6235 7.12476C9.653 7.12476 5.62347 11.1543 5.62347 16.1248C5.62347 21.0954 9.653 25.1249 14.6235 25.1249C19.5941 25.1249 23.6236 21.0954 23.6236 16.1248C23.6236 11.1543 19.5941 7.12476 14.6235 7.12476ZM11.023 9.58677C10.6545 10.1833 10.3376 10.8683 10.0816 11.6248H8.66153C9.29604 10.7872 10.0985 10.0982 11.023 9.58677ZM7.75953 13.1248H9.67901C9.53153 13.8388 9.4335 14.5913 9.396 15.3748H7.19948C7.27952 14.5848 7.45249 13.8238 7.75953 13.1248ZM7.75953 19.1248C7.45249 18.4258 7.27952 17.6649 7.19954 16.8748H9.39606C9.43356 17.6584 9.53159 18.4108 9.67907 19.1248H7.75953ZM8.66205 20.6249H10.0821C10.3376 21.3814 10.6551 22.0664 11.0236 22.6629C10.0985 22.1514 9.29604 21.4623 8.66205 20.6249ZM13.8735 23.4349C13.0445 23.0508 12.243 22.0559 11.6755 20.6249H13.8735V23.4349ZM13.8735 19.1248H11.2035C11.045 18.4384 10.957 17.6748 10.915 16.8748H13.8735V19.1248ZM13.8735 15.3748H10.915C10.9575 14.5748 11.045 13.8113 11.2035 13.1248H13.8735V15.3748ZM13.8735 11.6248H11.6755C12.243 10.1938 13.0445 9.19928 13.8735 8.81479V11.6248ZM21.4881 13.1248C21.7951 13.8238 21.9682 14.5848 22.0481 15.3748H19.8516C19.8141 14.5913 19.7161 13.8388 19.5686 13.1248H21.4881ZM20.5856 11.6248H19.1656C18.9101 10.8683 18.5926 10.1833 18.2241 9.58677C19.1486 10.0982 19.9516 10.7872 20.5856 11.6248ZM15.3736 8.81473C16.2031 9.19876 17.0041 10.1937 17.5716 11.6247H15.3736V8.81473ZM15.3736 13.1248H18.0436C18.2021 13.8113 18.2901 14.5748 18.3321 15.3748H15.3736V13.1248ZM15.3736 23.4349V20.6249H17.5716C17.0041 22.0559 16.2026 23.0504 15.3736 23.4349ZM15.3736 19.1248V16.8748H18.3321C18.2897 17.6748 18.2021 18.4384 18.0436 19.1248H15.3736ZM18.2241 22.6629C18.5926 22.0664 18.9096 21.3814 19.1656 20.6249H20.5856C19.9516 21.4623 19.1486 22.1514 18.2241 22.6629ZM19.5686 19.1248C19.7161 18.4108 19.8141 17.6584 19.8516 16.8748H22.0481C21.9682 17.6649 21.7951 18.4258 21.4881 19.1248H19.5686Z"/>
<path d="M29.2257 22.6439C29.1187 22.2439 28.7072 22.0064 28.3072 22.1134L26.9041 22.4894C27.9006 20.5789 28.4981 18.4289 28.4981 16.1248C28.4981 9.61677 24.0111 4.17026 17.966 2.67224C17.9826 2.78023 17.9986 2.88875 17.9986 2.99972C17.9986 3.4107 17.8811 3.8017 17.6755 4.14624C23.0251 5.51072 26.9986 10.3563 26.9986 16.1248C26.9986 18.1163 26.5061 19.9884 25.6666 21.6564L25.3286 20.3944C25.2216 19.9943 24.8101 19.7568 24.4101 19.8638C24.2101 19.9173 24.0506 20.0468 23.9546 20.2134C23.8585 20.3799 23.8261 20.5824 23.8795 20.7824L24.703 23.8559C24.8106 24.2564 25.2215 24.4934 25.6216 24.3864L28.6951 23.5629C29.0957 23.4554 29.3332 23.0445 29.2257 22.6439Z"/>
<path d="M16.279 2.46975L14.029 0.219728C13.736 -0.0732428 13.2615 -0.0732428 12.9685 0.219728C12.6755 0.512758 12.6755 0.987254 12.9685 1.28022L13.971 2.28271C6.61298 2.62578 0.748413 8.68231 0.748413 16.1249C0.748413 17.4564 0.94693 18.7394 1.29691 19.9584C1.68539 19.6489 2.17143 19.4634 2.69391 19.4634C2.70241 19.4634 2.71091 19.4669 2.71993 19.4669C2.42046 18.4019 2.24895 17.2844 2.24895 16.1249C2.24895 9.54933 7.41051 4.17929 13.8915 3.79679L12.9685 4.71976C12.6755 5.01273 12.6755 5.48729 12.9685 5.78026C13.115 5.92675 13.3065 5.99975 13.4985 5.99975C13.6905 5.99975 13.8825 5.92675 14.029 5.78026L16.279 3.53024C16.5721 3.23727 16.5721 2.76278 16.279 2.46975Z"/>
<path d="M23.4836 24.7464C21.2341 27.058 18.096 28.5 14.6235 28.5C10.3205 28.5 6.55245 26.2719 4.33543 22.929L5.57393 23.261C5.97395 23.3685 6.38493 23.1309 6.49245 22.7304C6.54595 22.5305 6.51343 22.3274 6.41745 22.1614C6.32148 21.9954 6.16192 21.866 5.96194 21.8119L2.88844 20.9885C2.48795 20.8815 2.07744 21.1185 1.96992 21.519L1.14644 24.5925C1.03945 24.9929 1.27646 25.4035 1.67695 25.511C2.07697 25.6185 2.48795 25.3809 2.59547 24.9805L2.96749 23.593C5.43401 27.436 9.71853 30 14.6236 30C18.5491 30 22.0861 28.363 24.6107 25.7429C24.1306 25.5535 23.7381 25.2014 23.4836 24.7464Z"/>
</svg>