<svg xmlns="http://www.w3.org/2000/svg" width="74" height="74" id="icon-cup" viewBox="0 0 32 54">
  <path d="M20.3201 44.9999H11.6801C10.6375 44.9538 9.75317 45.7577 9.70007 46.7999V48.5999C9.75317 49.6422 10.6375 50.4461 11.6801 50.3999H20.3201C21.3626 50.4461 22.247 49.6422 22.3001 48.5999V46.7999C22.247 45.7577 21.3626 44.9538 20.3201 44.9999ZM20.3201 48.5999H11.6801C11.6251 48.5963 11.5705 48.5887 11.5166 48.5771C11.5069 48.5771 11.5012 48.5801 11.4999 48.5885L11.4832 46.8637C11.5381 46.8178 11.6087 46.795 11.6801 46.7999H20.3201C20.4304 46.7999 20.4954 46.8426 20.5001 46.8114L20.5168 48.5362C20.4619 48.582 20.3914 48.6049 20.3201 48.5999Z" fill="#87C719"/>
  <path d="M7.00026 36.9001C5.50977 36.9017 4.30189 38.1096 4.30026 39.6001V41.4001C2.31296 41.4023 0.702488 43.0128 0.700256 45.0001V52.2001C0.701249 53.1938 1.50656 53.9991 2.50026 54.0001H29.5003C30.494 53.9991 31.2993 53.1938 31.3003 52.2001V45.0001C31.298 43.0128 29.6876 41.4023 27.7003 41.4001V39.6001C27.6986 38.1096 26.4907 36.9017 25.0003 36.9001H23.7237C21.8702 33.7542 20.6236 29.5131 20.0097 24.2633L22.2963 25.4655C22.9028 25.7845 23.6378 25.7315 24.1923 25.3288C24.7467 24.926 25.0243 24.2433 24.9084 23.5679L23.6986 16.5151L28.8222 11.5201C29.3129 11.0419 29.4896 10.3266 29.278 9.67495C29.0664 9.02328 28.5031 8.54827 27.8251 8.44965L20.7433 7.42068L17.5762 1.00368C17.2732 0.389134 16.6475 0 15.9623 0C15.2771 0 14.6514 0.389134 14.3484 1.00368L11.1804 7.42014L4.09983 8.44947C3.42157 8.54778 2.858 9.02273 2.64617 9.67451C2.43435 10.3263 2.61103 11.0418 3.10191 11.5201L8.22588 16.5151L7.01655 23.5683C6.8988 24.2441 7.17594 24.928 7.73093 25.3311C8.28592 25.7343 9.02199 25.7864 9.62826 25.4655L11.9925 24.2226C11.3859 29.4282 10.1137 33.7711 8.27619 36.9001H7.00026ZM29.5003 45.0001L29.5016 52.2001H2.50026V45.0001C2.50125 44.0064 3.30656 43.2011 4.30026 43.2001H27.7003C28.694 43.2011 29.4993 44.0064 29.5003 45.0001ZM25.9003 39.6001V41.4001H6.10026V39.6001C6.1009 39.1033 6.50347 38.7007 7.00026 38.7001H25.0003C25.497 38.7007 25.8996 39.1033 25.9003 39.6001ZM8.79126 23.872L9.99996 16.8193C10.1004 16.2352 9.90694 15.6392 9.48273 15.2254L4.35867 10.231L11.44 9.20178C12.0262 9.11662 12.5329 8.74835 12.7949 8.21709L15.9589 1.79451L15.962 1.80009L19.1287 8.21709C19.391 8.74831 19.8977 9.11655 20.484 9.20187L27.5653 10.2307L22.4413 15.2257C22.0171 15.6391 21.8235 16.2348 21.9236 16.8187L23.1335 23.8719L16.7996 20.5419C16.2753 20.2659 15.6487 20.2659 15.1244 20.5419L8.79126 23.872ZM13.9097 23.215L15.9627 22.1358L18.0914 23.255C18.6269 28.8132 19.8204 33.396 21.6541 36.9001H10.3458C12.1891 33.3791 13.3828 28.783 13.9095 23.2146L13.9097 23.215Z" fill="#464646"/>
</svg>