<!-- Generated by IcoMoon.io -->
<svg version="1.1" xmlns="http://www.w3.org/2000/svg" width="74" height="74" viewBox="0 0 74 74">
<title>enter-button</title>
<path d="M23.2 59.5l-5.2 6.6-3-2.4c-0.8-0.6-1.2-1.3-1.3-1.9-0.1-0.5 0.1-1 0.4-1.5 0.5-0.7 1.2-0.9 2.1-0.7-0.6-1-0.6-1.9 0-2.7 0.5-0.6 1-0.8 1.7-0.8s1.4 0.3 2.1 0.9l3.2 2.5zM19 62.4l-1.6-1.3c-0.4-0.3-0.7-0.5-1.1-0.5-0.3 0-0.6 0.1-0.9 0.4-0.2 0.3-0.3 0.5-0.2 0.9s0.3 0.6 0.7 0.9l1.7 1.3 1.4-1.7zM21.2 59.6l-1.9-1.5c-0.4-0.3-0.8-0.5-1.1-0.5s-0.6 0.1-0.9 0.4c-0.5 0.6-0.3 1.2 0.7 2l1.8 1.5 1.4-1.9z"></path>
<path d="M12.2 48.9c1.2 0.3 2.1 0.9 2.8 2s0.9 2.2 0.6 3.3c-0.3 1.1-0.9 2-2 2.7-1 0.6-2.1 0.8-3.3 0.6-1.2-0.3-2.1-0.9-2.8-2s-0.9-2.2-0.6-3.3 0.9-2 2-2.7c1-0.7 2.1-0.9 3.3-0.6zM14.1 53.8c0.2-0.8 0.1-1.5-0.4-2.2-0.4-0.7-1-1.1-1.8-1.3-0.8-0.1-1.5 0-2.2 0.5-0.7 0.4-1.2 1-1.4 1.8s-0.1 1.5 0.4 2.2c0.4 0.7 1 1.1 1.8 1.3 0.8 0.1 1.5 0 2.2-0.5s1.2-1.1 1.4-1.8z"></path>
<path d="M1.8 43.3c0.4 0.3 0.6 0.6 0.7 1.1s0 0.9-0.2 1.3c-0.2 0.4-0.6 0.7-1.1 0.9l-0.4-0.8c0.5-0.3 0.7-0.6 0.6-1.1s-0.4-0.8-1-0.8v-0.9c0.6-0.1 1 0 1.4 0.3zM12.1 46l-8.2 1.7-0.3-1.4 6-1.3-6.9-2.9-0.3-1.4 8.2-1.7 0.3 1.4-6 1.3 6.9 2.9 0.3 1.4z"></path>
<path d="M10.9 35.4l-7-0.7-0.2 2.7-1.4-0.1 0.6-6.8 1.4 0.1-0.3 2.7 7 0.7-0.1 1.4z"></path>
<path d="M11.5 30.2l-7.7-3.2 0.6-1.3 5.6 2.3-4-6.3 0.5-1.3 7.7 3.3-0.6 1.3-5.6-2.4 4 6.3-0.5 1.3z"></path>
<path d="M17.3 19.7l-5.5-6.3 2.8-2.5c0.7-0.6 1.4-0.9 2.1-0.9 0.5 0 1 0.3 1.4 0.7 0.5 0.6 0.7 1.4 0.3 2.2 1.1-0.4 2-0.3 2.6 0.5 0.5 0.6 0.6 1.2 0.5 1.8-0.2 0.7-0.6 1.3-1.3 1.9l-2.9 2.6zM15.2 15l1.5-1.3c0.4-0.3 0.6-0.6 0.7-1 0.1-0.3 0-0.6-0.3-0.9-0.2-0.3-0.5-0.4-0.8-0.3-0.3 0-0.7 0.2-1 0.5l-1.6 1.4 1.5 1.6zM17.5 17.7l1.8-1.6c0.4-0.3 0.6-0.7 0.7-1s0-0.7-0.3-0.9c-0.5-0.6-1.2-0.5-2 0.3l-1.7 1.5 1.5 1.7z"></path>
<path d="M26.6 13c-0.3 0.1-0.7 0.1-1 0.1l-0.2-1.1c0.2 0 0.3 0 0.5-0.1 0.2 0 0.3-0.1 0.5-0.2 0.1-0.1 0.2-0.3 0.3-0.5 0.1-0.3 0.1-0.6 0.1-1s-0.1-0.9-0.2-1.6c-0.1-0.7-0.3-1.5-0.6-2.4l-0.4-1.6 5.6-1.6 2.2 8.1-1.4 0.4-1.8-6.8-2.8 0.8 0.2 0.7c0.3 1.3 0.6 2.3 0.7 3.2s0.1 1.5 0 2c-0.1 0.5-0.3 0.9-0.5 1.1-0.4 0.2-0.7 0.4-1.2 0.5z"></path>
<path d="M35 11l0.5-8.4 1.5 0.1-0.4 6.1 4.6-5.8h1.4l-0.6 8.4-1.4-0.1 0.4-6.1-4.6 5.8h-1.4z"></path>
<path d="M48.2 13.7l1.3-3.1c-1 0.1-1.8 0-2.5-0.2-0.8-0.4-1.3-0.8-1.6-1.4s-0.3-1.3 0.1-2.1l1.1-2.9 1.4 0.5-1 2.5c-0.2 0.5-0.2 0.9-0.1 1.3s0.4 0.7 0.8 0.9c0.7 0.3 1.4 0.3 2.2 0.2l1.4-3.5 1.4 0.6-3.2 7.8-1.3-0.6z"></path>
<path d="M51 15.1l5.4-6.4 1.1 1-2.3 2.7 3.1 2.6 2.3-2.7 1.1 1-5.4 6.4-1.1-1 2.3-2.7-3.1-2.6-2.3 2.6-1.1-0.9z"></path>
<path d="M57.4 20.7l7.4-4 0.7 1.3-2.6 1.5 0.9 1.7c0.5 0.8 0.6 1.6 0.5 2.3s-0.6 1.3-1.3 1.7c-0.7 0.4-1.5 0.5-2.2 0.2s-1.3-0.8-1.8-1.7l-1.6-3zM59.3 21.3l0.9 1.7c0.3 0.5 0.6 0.8 0.9 0.9 0.4 0.1 0.7 0.1 1.2-0.1 0.4-0.2 0.6-0.5 0.6-0.9 0.1-0.4-0.1-0.8-0.3-1.3l-0.9-1.6-2.4 1.3zM61.1 27.3l7.4-4 0.7 1.3-7.4 4-0.7-1.3z"></path>
<path d="M62.1 30.1l8.3-1.1 0.2 1.4-6.1 0.8 6.6 3.4 0.2 1.4-8.3 1.1-0.2-1.4 6.1-0.8-6.6-3.4-0.2-1.4zM72.2 33.6c-0.3-0.3-0.5-0.7-0.6-1.2s0-0.9 0.3-1.3c0.3-0.4 0.6-0.6 1.1-0.8l0.3 0.9c-0.5 0.2-0.7 0.6-0.7 1.1 0.1 0.5 0.4 0.8 0.9 0.9v0.9c-0.5 0-1-0.2-1.3-0.5z"></path>
<path d="M61.3 49.3c-0.5-1.1-0.6-2.2-0.1-3.4 0.4-1.2 1.2-2 2.2-2.5 1.1-0.5 2.2-0.5 3.3-0.1s2 1.1 2.5 2.2 0.6 2.2 0.1 3.4c-0.4 1.2-1.2 2-2.2 2.5-1.1 0.5-2.2 0.5-3.3 0.1-1.2-0.4-2-1.2-2.5-2.2zM63.9 44.7c-0.7 0.3-1.2 0.9-1.5 1.6-0.3 0.8-0.2 1.5 0.1 2.2s0.9 1.2 1.7 1.5c0.8 0.3 1.5 0.3 2.3 0 0.7-0.3 1.2-0.9 1.5-1.6s0.2-1.5-0.1-2.2c-0.4-0.7-0.9-1.2-1.7-1.5s-1.5-0.3-2.3 0z"></path>
<path d="M56.5 53.6l0.7 0.6c0.9-1 1.8-1.5 2.8-1.6s1.9 0.2 2.7 0.9c0.8 0.7 1.2 1.6 1.2 2.6s-0.4 2-1.3 3l0.6 0.5-1 1.1-0.6-0.5c-0.9 1-1.8 1.5-2.8 1.6s-1.9-0.2-2.7-0.9c-0.8-0.7-1.2-1.6-1.2-2.6s0.4-2 1.3-3l-0.7-0.6 1-1.1zM57.2 56.2c-0.6 0.6-0.8 1.3-0.8 1.9s0.3 1.2 0.8 1.7c0.5 0.5 1.1 0.7 1.8 0.6s1.2-0.4 1.8-1.1l-3.6-3.1zM58.2 55.1l3.5 3.1c0.6-0.6 0.8-1.3 0.8-1.9s-0.3-1.2-0.8-1.7c-0.6-0.5-1.1-0.7-1.8-0.6-0.6 0.1-1.2 0.5-1.7 1.1z"></path>
<path d="M52 58.5l3.9 7.4-1.3 0.7-2.8-5.4-0.9 7.4-1.2 0.6-3.9-7.4 1.3-0.7 2.8 5.4 0.9-7.4 1.2-0.6z"></path>
<path d="M40.3 62.8c1.2-0.2 2.3 0.1 3.2 0.8s1.5 1.7 1.7 2.9c0.2 1.2-0.1 2.3-0.7 3.2-0.7 1-1.6 1.5-2.9 1.7-0.7 0.1-1.3 0.1-1.9 0-0.5-0.1-1.1-0.4-1.6-0.7l0.8-1.2c0.9 0.6 1.7 0.8 2.5 0.7s1.4-0.5 1.8-1.2c0.4-0.7 0.6-1.4 0.4-2.2-0.1-0.8-0.5-1.5-1.1-2s-1.3-0.7-2.1-0.6c-0.5 0.1-0.9 0.2-1.2 0.5s-0.7 0.6-1 1l-1.1-0.8c0.4-0.6 0.8-1 1.3-1.3s1.1-0.7 1.9-0.8z"></path>
</svg>
