<svg xmlns="http://www.w3.org/2000/svg" viewBox="0 0 1995 750"><path d="M392.7 750c130.9 0 237-48.5 313.3-111.2V314.3H374.1v146.2h142.2v87.6c-29.9 19.6-67 29.9-115.4 29.9C286.5 578 205 494.5 205 378.1c0-112.2 80.4-199.9 184.5-199.9 71.1 0 122.6 24.7 174.2 68l117.6-141C605 39.2 515.3 0 388.6 0 164.9 0 0 164.8 0 375c0 220.5 168 375 392.7 375zM741 469.9h43.6v-47.5h19l31.6 47.5h50.4l-37.5-54.6c19.5-8.3 32.4-24.2 32.4-48.1 0-15.9-4.7-28-13.9-37.2-10.5-10.5-27.1-16.8-51.2-16.8H741v156.7zm43.5-81.6v-37.6H813c14.6 0 23.6 6.2 23.6 18.6 0 11.8-8.6 19.1-23.4 19.1l-28.7-.1zm129.1 81.6h127.6V433h-84.5v-24.9h75.4v-34.2h-75.4v-23.7h83.3v-36.9H913.6v156.6zm161 0h127.6V433h-84.4v-24.9h75.4v-34.2h-75.4v-23.7h83.3v-36.9h-126.5v156.6zm161 0h43.1v-86l67.2 86h38.2V313.1H1341V396l-64.7-82.9h-40.7v156.8zm229.6 1.1h38l31.4-90.2 31.6 90.2h38l52.6-157.9h-45.2l-27.4 90.7-30.3-91.1h-37.5l-30.3 91.1-27.4-90.7h-46l52.5 157.9zm187.4-1.1h45.8l11.2-28h60.6l11.4 28h46.7l-67-157.9h-42l-66.7 157.9zm69.8-61.8l17.8-44.5 17.6 44.5h-35.4zm153.1 61.8h43.8v-59.3l59.7-97.4h-48.8l-32.6 57.1-32.4-57.1h-49.6l59.7 98.1.2 58.6z"/></svg>