<svg xmlns="http://www.w3.org/2000/svg" viewBox="0 0 358 136"><path d="M71.18 126A76.35 76.35 0 0 0 120 108.79V58.6H68.3v22.63h22.16v13.54c-4.65 3-10.44 4.62-18 4.62C54.66 99.4 42 86.5 42 68.5c0-17.37 12.48-30.9 28.7-30.9 11.08 0 19.1 3.82 27.14 10.5l18.3-21.83C104.26 16.05 90.3 10 70.54 10 35.7 10 10 35.5 10 68c0 34.1 26.18 58 61.18 58zM128 86.8h7.74v-8.36h3.4l5.63 8.36h8.94l-6.7-9.62a8.73 8.73 0 0 0 5.74-8.48 8.75 8.75 0 0 0-2.47-6.55c-1.88-1.85-4.83-2.95-9.1-2.95H128zm7.74-14.35v-6.63h5.07c2.6 0 4.2 1.1 4.2 3.28s-1.52 3.35-4.15 3.35zm22.94 14.35h22.67v-6.5h-15v-4.38h13.4v-6h-13.42V65.7h14.8v-6.5h-22.47zm28.6 0H210v-6.5h-15v-4.38h13.4v-6H195V65.7h14.8v-6.5h-22.5zm28.6 0h7.67V71.66L235.5 86.8h6.78V59.2h-7.66v14.6l-11.5-14.6h-7.23zm40.8.2h6.74L269 71.1l5.65 15.9h6.75l9.34-27.8h-8l-4.87 16-5.4-16.05h-6.67l-5.38 16.05-4.87-16h-8.18zm33.3-.2h8.14l2-4.93h10.76l2 4.93h8.3L309.35 59h-7.47zm12.4-10.88l3.16-7.85 3.1 7.85zm27.2 10.88h7.78V76.35L348 59.2h-8.66l-5.8 10-5.74-10H319l10.6 17.27z"/></svg>