<svg xmlns="http://www.w3.org/2000/svg" xmlns:xlink="http://www.w3.org/1999/xlink" width="273" height="981" fill="none"><g fill="#87c719"><path d="M142.744 905.876c0-24.892-9.212-45.08-21.168-59.584h-61.74v63.112h27.832v-27.048h16.66c3.724 5.684 5.684 12.74 5.684 21.952 0 21.756-15.876 37.24-38.024 37.24-21.364 0-38.024-15.288-38.024-35.084 0-13.524 4.704-23.324 12.936-33.124l-26.852-22.344C7.504 865.5.056 882.552.056 906.66c0 42.532 31.36 73.892 71.344 73.892 41.944 0 71.344-31.948 71.344-74.676zM140 827.367v-37.24h-32.928c-24.5 0-35.672-10.976-35.672-30.38v-3.136H32.2c-.784 17.64 8.624 27.44 23.128 33.516H33.964v37.24H140z"/><use xlink:href="#B"/><use xlink:href="#B" y="-118.671"/><path d="M140 508.102v-37.24H82.572c-11.564 0-17.836-6.664-17.836-15.68 0-8.82 6.272-14.896 17.836-14.896H140v-37.24H70.616c-24.108 0-39.004 13.524-39.004 36.064 0 15.092 8.428 24.892 17.248 31.752H33.964v37.24H140zm.784-146.048v-31.948l-55.076-17.64 55.076-17.248v-32.144l-106.82-32.732V266.2l53.704 14.308-54.096 16.464v30.772l53.704 16.268-53.312 13.916v36.456l106.82-32.34zm1.568-169.528c0-13.916-5.292-23.912-13.328-31.164H140v-36.848H79.044c-14.896 0-25.872 3.332-33.712 11.368-8.428 8.428-12.936 21.364-12.936 40.376 0 18.228 3.332 30.968 8.232 42.924l26.264-7.644c-3.724-9.408-5.88-18.032-5.88-29.204 0-14.308 6.272-21.168 17.248-21.168h1.764c-2.156 6.076-4.116 15.68-4.116 25.48 0 24.892 11.368 41.552 33.32 41.552 21.56 0 33.124-15.484 33.124-35.672zm-23.324-13.328c0 7.644-4.312 13.132-11.564 13.132-8.232 0-13.524-6.272-13.524-17.052 0-5.488 1.176-10.78 2.744-14.504h4.9c10.584 0 17.444 7.644 17.444 18.424zM171.948 79.2c0-21.168-9.8-31.164-34.496-40.376L33.964.007v38.22L97.86 58.22 33.964 79.387v39.004L138.04 76.84c3.332 2.352 4.312 4.9 4.312 8.624 0 4.116-2.156 10.388-5.684 16.268l26.068 11.564c5.488-9.8 9.212-20.972 9.212-34.104zM270 978.004v-37.24h-57.428c-11.564 0-17.836-6.664-17.836-15.68 0-8.82 6.272-14.896 17.836-14.896H270v-37.24h-69.384c-24.108 0-39.004 13.524-39.004 36.064 0 15.092 8.428 24.892 17.248 31.752h-14.896v37.24H270z"/><use xlink:href="#B" x="130" y="108.336"/><path d="M270.784 715.4v-31.948l-55.076-17.64 55.076-17.248V616.4l-106.82-32.732v35.868l53.704 14.308-54.096 16.464V681.1l53.704 16.268-53.312 13.916v36.456l106.82-32.34zm1.568-183.403c0-25.872-12.152-43.316-35.476-43.316-20.972 0-28.028 16.66-34.104 37.632-3.332 11.172-5.292 17.248-9.408 17.248-3.332 0-5.488-2.94-5.488-8.624 0-8.428 3.724-20.384 9.8-31.36l-23.52-12.74c-7.84 12.152-12.348 28.224-12.348 43.708 0 24.5 12.544 42.532 35.084 42.532 21.756 0 28.616-16.66 34.3-37.632 2.94-11.172 4.9-17.052 9.016-17.052s6.076 2.94 6.076 9.408c0 10.976-4.116 24.304-12.152 36.456l22.54 13.916c10.584-14.7 15.68-32.34 15.68-50.176z"/></g><defs ><path id="B" d="M142.548 692.917c0-21.168-8.624-35.868-21.56-46.06l-17.052 20.58c7.448 7.644 10.78 14.7 10.78 23.52 0 11.564-5.88 19.992-17.444 22.932v-70.952c-2.548-.196-5.292-.196-7.644-.196-31.164 0-58.016 16.856-58.016 53.508 0 31.36 24.5 53.508 55.468 53.508 33.32 0 55.468-23.52 55.468-56.84zm-64.288 21.56c-11.564-1.96-19.208-8.624-19.208-18.424 0-10.192 7.448-17.052 19.208-18.424v36.848z"/></defs></svg>