<svg xmlns="http://www.w3.org/2000/svg" viewBox="0 0 511.2 570.5"><path d="M185.5 563.2h-76.9v-478L0 92.5V42.6l185.5-35v555.6zm114.4-312.3h52.9c25.6 0 44.3-8.5 56-25.5 11.9-17.3 17.9-40.5 17.9-69.7 0-30-6.2-53.4-18.7-70.5-12.1-17.2-30-25.8-53.6-25.8-21.6 0-39.4 8.6-53.3 25.9-13.7 17-20.6 39.5-20.6 67.4H207l-1.1-2.3c-1-42.9 12.4-78.7 40.4-107.4 27.9-28.7 63.5-43 106.6-43 45.7 0 82.3 13.7 109.7 41.1 27.4 27.2 41.1 65.6 41.1 115.4 0 24.6-6.5 48.2-19.4 70.8-12.9 22.3-31.3 39.3-55.2 51 27.9 10.4 48.6 27.3 62.1 50.7 13.4 23.1 20.2 49.9 20.2 80.3 0 50.3-14.9 89.7-44.6 118.4-29.4 28.4-67.2 42.7-113.4 42.7-43.2 0-79.7-13.6-109.7-40.8-29.7-27.4-44-65.5-43-114.3l1.2-2.3h73.9c0 29.2 7.2 52.9 21.7 71.2s33.5 27.4 57.1 27.4c24.9 0 44.3-8.8 58.3-26.3 14.2-17.8 21.3-42.9 21.3-75.4 0-34.5-6.7-59.9-20.2-76.2-13.5-16.5-33.8-24.8-60.9-24.8h-53v-58z"/></svg>