<svg xmlns="http://www.w3.org/2000/svg" viewBox="0 0 99.26 78.5"><defs><style>.cls-1{fill:#87c719;}</style></defs><title>39</title><g id="Слой_2" data-name="Слой 2"><g id="Слой_1-2" data-name="Слой 1"><path class="cls-1" d="M22.07,34.22q5.76,0,8.49-3.54t2.72-9.51a15,15,0,0,0-2.75-9.38q-2.75-3.61-8-3.62a10.31,10.31,0,0,0-8.07,3.62A13.4,13.4,0,0,0,11.22,21H.85L.74,20.7A18.72,18.72,0,0,1,6.74,6,22,22,0,0,1,22.49,0q10,0,15.8,5.5t5.84,15.72A18.4,18.4,0,0,1,33.7,38a17.69,17.69,0,0,1,8.54,6.92,20.66,20.66,0,0,1,3,11.42q0,10.38-6.37,16.27T22.49,78.5a24.12,24.12,0,0,1-15.9-5.69Q-.25,67.13,0,57.17l.1-.32H10.44a14.2,14.2,0,0,0,3.38,9.67,10.92,10.92,0,0,0,8.67,3.91,10.88,10.88,0,0,0,8.75-3.85q3.25-3.85,3.25-10.14,0-7.19-3.14-10.69t-9.28-3.52H14.73v-8Z"/><path class="cls-1" d="M74.84,70.43a11.77,11.77,0,0,0,9.85-5q3.77-5,3.77-14.1V44a16.11,16.11,0,0,1-5.74,5.61,14.83,14.83,0,0,1-7.41,1.94q-9.65,0-15.2-6.86t-5.55-18.5q0-11.32,6.21-18.74A19.55,19.55,0,0,1,76.41,0,20.77,20.77,0,0,1,92.94,7.34q6.32,7.34,6.32,20.59V51q0,12.88-6.84,20.2T74.84,78.5a33.52,33.52,0,0,1-7.36-.84,30.24,30.24,0,0,1-7-2.47l1.73-7.7a24.85,24.85,0,0,0,5.92,2.26A30.07,30.07,0,0,0,74.84,70.43ZM76.41,43.6a11.88,11.88,0,0,0,7.36-2.31,14.81,14.81,0,0,0,4.69-6v-9q0-8.8-3.19-13.5a10,10,0,0,0-8.7-4.69q-4.93,0-8.07,5.14T65.35,26.15q0,7.76,2.89,12.6A9,9,0,0,0,76.41,43.6Z"/></g></g></svg>