<svg fill="#E7E7E7" xmlns="http://www.w3.org/2000/svg" width="74" height="74" id="icon-wings" viewBox="0 0 49 36">
			<path fill-rule="evenodd" clip-rule="evenodd" d="M44.5346 18.3711L44.5343 11.5887C44.5343 5.47034 39.5567 0.492676 33.4383 0.492676H2.22158C0.575234 0.492676 -0.50093 2.22913 0.236732 3.7043C1.54295 5.60586 2.81115 12.033 9.74571 13.5497C10.7248 14.941 12.0336 20.8456 18.6036 22.3886C20.2003 26.5115 21.4628 27.774 24.3781 30.0141C26.0564 31.0102 28.0017 31.5615 30.048 31.5615H36.0395C36.9556 34.1443 39.4223 35.9999 42.3154 35.9999C45.9864 35.9999 48.973 33.0133 48.973 29.3423C48.973 26.4492 47.1176 23.9825 44.5346 23.0664V18.3711ZM44.5343 29.3423C44.5343 28.1186 43.5388 27.1231 42.3151 27.1231C41.0915 27.1231 40.0959 28.1186 40.0959 29.3423C40.0959 30.5659 41.0915 31.5615 42.3151 31.5615C43.5388 31.5615 44.5343 30.5659 44.5343 29.3423ZM28.9999 13.8079H14.8371C14.9941 13.9915 16.4046 18.2463 21.171 18.2463H33.4383C34.6639 18.2463 35.6575 19.2399 35.6575 20.4655C35.6575 21.6911 34.6639 22.6847 33.4383 22.6847H23.7138C23.8708 22.8681 25.2811 27.1231 30.0477 27.1231H36.0392C36.709 25.2347 38.2075 23.7361 40.0959 23.0664V11.5887C40.0959 7.91768 37.1093 4.93108 33.4383 4.93108H5.8124C5.96937 5.11453 7.37989 9.36948 12.1463 9.36948H28.9999C30.2255 9.36948 31.2191 10.3631 31.2191 11.5887C31.2191 12.8143 30.2255 13.8079 28.9999 13.8079Z"/>
		</svg>