<svg xmlns="http://www.w3.org/2000/svg" width="147" height="699" fill="#fff"><path d="M144 657.332v-38.024H40.12v-41.16H6.8v120.344h33.32v-41.16H144zm0-86.828v-37.24h-32.928c-24.5 0-35.672-10.976-35.672-30.38v-3.136H36.2c-.784 17.64 8.624 27.44 23.128 33.516H37.964v37.24H144zm2.352-109.24c0-13.916-5.292-23.912-13.328-31.164H144v-36.848H83.044c-14.896 0-25.872 3.332-33.712 11.368-8.428 8.428-12.936 21.364-12.936 40.376 0 18.228 3.332 30.968 8.232 42.924l26.264-7.644c-3.724-9.408-5.88-18.032-5.88-29.204 0-14.308 6.272-21.168 17.248-21.168h1.764c-2.156 6.076-4.116 15.68-4.116 25.48 0 24.892 11.368 41.552 33.32 41.552 21.56 0 33.124-15.484 33.124-35.672zm-23.324-13.328c0 7.644-4.312 13.132-11.564 13.132-8.232 0-13.524-6.272-13.524-17.052 0-5.488 1.176-10.78 2.744-14.504h4.9c10.584 0 17.444 7.644 17.444 18.424zm21.756-102.565v-33.908l-106.82-42.336v38.612L99.9 328.124l-61.936 20.384v39.2l106.82-42.336zm1.764-134.412c0-21.168-8.624-35.868-21.56-46.06l-17.052 20.58c7.448 7.644 10.78 14.7 10.78 23.52 0 11.564-5.88 19.992-17.444 22.932V160.98c-2.548-.196-5.292-.196-7.644-.196-31.164 0-58.016 16.856-58.016 53.508 0 31.36 24.5 53.508 55.468 53.508 33.32 0 55.468-23.52 55.468-56.84zM82.26 232.52c-11.564-1.96-19.208-8.624-19.208-18.424 0-10.192 7.448-17.052 19.208-18.424v36.848zM144 144.032v-37.24H.92v37.24H144zm2.352-100.117C146.352 18.043 134.2.6 110.876.6 89.904.6 82.848 17.26 76.772 38.23c-3.332 11.173-5.292 17.25-9.408 17.25-3.332 0-5.488-2.94-5.488-8.624 0-8.428 3.724-20.384 9.8-31.36l-23.52-12.74c-7.84 12.152-12.348 28.224-12.348 43.708 0 24.5 12.544 42.532 35.084 42.532 21.756 0 28.616-16.66 34.3-37.632 2.94-11.172 4.9-17.052 9.016-17.052s6.076 2.94 6.076 9.408c0 10.976-4.116 24.304-12.152 36.456l22.54 13.916c10.584-14.7 15.68-32.34 15.68-50.176z"/></svg>