<svg xmlns="http://www.w3.org/2000/svg" width="74" height="74" id="icon-logo-small" viewBox="0 0 60 30">
<path d="M59.5346 20.3562L46.4572 12.7265C46.3157 12.6441 46.1552 12.6007 45.9919 12.6007C45.8285 12.6007 45.6681 12.6441 45.5266 12.7266C45.3851 12.8091 45.2676 12.9277 45.1858 13.0706C45.104 13.2134 45.0608 13.3755 45.0605 13.5406V28.801C45.0606 28.9661 45.1037 29.1284 45.1854 29.2714C45.2671 29.4144 45.3846 29.5332 45.5261 29.6157C45.6677 29.6983 45.8282 29.7419 45.9916 29.7419C46.155 29.742 46.3156 29.6986 46.4572 29.6161L59.5346 21.9854C59.6759 21.9027 59.7932 21.7839 59.8748 21.6409C59.9564 21.498 59.9993 21.3358 59.9993 21.1708C59.9993 21.0057 59.9564 20.8436 59.8748 20.7006C59.7932 20.5577 59.6759 20.4389 59.5346 20.3562Z" fill="#9CD116"/>
<path d="M33.4878 6.97897e-06C36.5057 -0.00242183 39.4911 0.62913 42.2547 1.85459V7.7472C40.0931 6.3045 37.1985 5.52278 34.3029 5.52278C29.2061 5.52278 24.1905 8.24211 24.1905 15.0005C24.1905 22.6658 29.777 24.6023 33.9775 24.6023C35.0474 24.6157 36.1109 24.4331 37.1164 24.0632V14.4399C37.1164 14.2603 37.187 14.088 37.3126 13.9611C37.4383 13.8341 37.6087 13.7627 37.7864 13.7627H42.9482V28.0667C40.0079 29.3328 36.847 29.9927 33.651 30.0076C25.6597 30.0076 17.9521 25.5986 17.9521 15.0081C17.9521 4.54157 25.6597 0.00863272 33.4888 0.00863272L33.4878 6.97897e-06Z" fill="#323232"/>
<path d="M13.2539 18.5782C12.8069 19.7643 12.1305 20.3368 11.1852 20.3368C10.936 20.3315 10.6883 20.2975 10.4468 20.2355V19.2995C10.4468 19.2761 10.4518 19.2529 10.4613 19.2315C10.4709 19.2101 10.4849 19.191 10.5023 19.1756C10.5181 19.1612 10.5368 19.1505 10.557 19.144C10.5772 19.1375 10.5986 19.1354 10.6197 19.1378C10.7308 19.1518 10.8427 19.159 10.9547 19.1594C11.3015 19.1594 11.7784 19.0106 12.0878 18.3033L12.1145 18.2439L10.0222 13.6398C10.0109 13.6151 10.0059 13.5879 10.0078 13.5608C10.0096 13.5336 10.0183 13.5073 10.0328 13.4844C10.0474 13.4615 10.0675 13.4427 10.0912 13.4297C10.1149 13.4167 10.1414 13.41 10.1684 13.4102H11.4007L12.681 16.5727L13.7511 13.4026H15.1936L13.2539 18.5782ZM9.85149 17.9561H8.59678C8.55424 17.9558 8.51353 17.9385 8.48355 17.908C8.45357 17.8775 8.43674 17.8362 8.43674 17.7932V15.1278C8.43674 14.6965 8.1572 14.4054 7.74217 14.4054C7.43874 14.4134 7.15058 14.5415 6.93983 14.7623L6.89822 14.8043V17.9485H5.64244C5.5999 17.9482 5.5592 17.9309 5.52921 17.9004C5.49923 17.8699 5.4824 17.8287 5.4824 17.7857V15.1278C5.4824 14.6965 5.20287 14.4054 4.78783 14.4054C4.60951 14.4112 4.43476 14.4574 4.27649 14.5407C4.11822 14.6239 3.98049 14.742 3.87347 14.8863L3.84253 14.9262V17.9453H2.42671V13.546C2.42699 13.503 2.44409 13.4619 2.47427 13.4316C2.50446 13.4013 2.54527 13.3843 2.58782 13.3843H3.64621V14.1574L3.90014 13.8501C4.07311 13.6557 4.28472 13.5004 4.52116 13.3943C4.75759 13.2882 5.01353 13.2337 5.27222 13.2344C5.85796 13.2344 6.29647 13.4382 6.57708 13.8404L6.67203 13.9763L6.7926 13.8684C7.24071 13.4501 7.72296 13.2387 8.22762 13.2387C9.77787 13.2387 9.85683 14.6944 9.85683 14.9866V17.9593L9.85149 17.9561ZM16.7257 15.0038C16.7108 13.2888 16.9473 11.581 17.4278 9.93607C16.2417 8.23917 14.548 6.97176 12.5959 6.32028C10.6439 5.66879 8.53642 5.66763 6.58364 6.31696C4.63085 6.96629 2.93583 8.23184 1.7479 9.92743C0.559968 11.623 -0.0581444 13.6591 -0.015512 15.7363C0.0271203 17.8134 0.728246 19.8218 1.98473 21.4662C3.24121 23.1105 4.98671 24.304 6.96445 24.8709C8.9422 25.4378 11.0478 25.3484 12.9714 24.6156C14.8951 23.8829 16.5353 22.5456 17.6508 20.8005C17.0565 19.1227 16.7257 17.1959 16.7257 15.0038Z" fill="#9CD116"/>
</svg>
