<svg fill="#74C044" xmlns="http://www.w3.org/2000/svg" width="74" height="74" id="icon-opportunities-02" viewBox="0 0 40 40">
<path d="M33.1 25.3c0.5-2-0.4-4.2-2.4-5.1l-3.2-1.5c-0.2-0.1-0.4-0.1-0.6-0.2 0.6-0.5 1-1.2 1-2v-3.5c0-2.1-1.6-3.9-3.6-4.3-0.3-2.1-2.1-3.7-4.3-3.7s-4 1.6-4.3 3.6c-2 0.4-3.6 2.2-3.6 4.3v3.5c0 0.8 0.4 1.5 1 2-0.2 0-0.4 0.1-0.6 0.2l-3.2 1.5c-2 0.9-2.9 3.1-2.4 5.1-1.7 1.2-2.4 3.5-1.5 5.4s3.1 3 5.1 2.5c1.2 1.7 3.5 2.3 5.4 1.4l3.2-1.5c0.3-0.2 0.6-0.4 0.8-0.6 0.2 0.3 0.5 0.5 0.8 0.6l3.2 1.5c1.9 0.9 4.2 0.3 5.4-1.4 2 0.5 4.2-0.5 5.1-2.5 1.1-1.8 0.4-4.1-1.3-5.3zM26.8 20.3l3.2 1.5c1.1 0.5 1.7 1.6 1.5 2.8-1.9-0.4-4 0.5-4.9 2.4l1.5-3.2c0.2-0.4 0-1-0.4-1.2l-1.7-0.7c-0.4-0.2-0.6-0.7-0.4-1.2 0.2-0.4 0.7-0.6 1.2-0.4zM20 6.8c1.4 0 2.6 1.2 2.6 2.7s-1.2 2.6-2.6 2.6c-1.5 0-2.6-1.2-2.6-2.6 0-1.5 1.2-2.7 2.6-2.7zM13.8 13c0-1.2 0.8-2.2 1.9-2.5 0.5 1.9 2.2 3.4 4.3 3.4s3.8-1.5 4.3-3.4c1.1 0.3 1.9 1.3 1.9 2.5v3.5c0 0.5-0.4 0.9-0.9 0.9s-0.9-0.4-0.9-0.9v-1.8c0-0.5-0.4-0.9-0.9-0.9h-7c-0.5 0-0.9 0.4-0.9 0.9v1.8c0 0.5-0.4 0.9-0.9 0.9s-0.9-0.4-0.9-0.9v-3.5zM10 21.8l3.2-1.5c0.4-0.2 1 0 1.2 0.4s0 1-0.4 1.2l-1.6 0.7c-0.4 0.2-0.6 0.7-0.4 1.2l1.5 3.2c-0.9-1.9-3-2.9-4.9-2.4-0.2-1.2 0.4-2.3 1.4-2.8zM10.6 31.3c-1.3 0.6-2.9 0-3.6-1.3-0.6-1.3 0-2.9 1.3-3.5s2.9 0 3.5 1.3c0.7 1.3 0.1 2.9-1.2 3.5zM18.4 31.5l-3.2 1.5c-1.1 0.5-2.3 0.2-3.1-0.6 0.6-0.5 1.1-1.2 1.4-2 0.4-1.1 0.3-2.3-0.1-3.4l1.5 3.2c0.2 0.4 0.7 0.6 1.2 0.4l1.6-0.7c0.4-0.2 1 0 1.2 0.4s0 1-0.5 1.2zM20 28.9c-0.7-0.8-2-1.1-3.1-0.6l-0.8 0.4-2.2-4.8 0.8-0.4c1.3-0.6 1.9-2.2 1.3-3.5-0.2-0.4-0.4-0.7-0.7-0.9 1.2-0.3 2.1-1.3 2.1-2.6v-0.9h5.3v0.9c0 1.3 0.9 2.3 2.1 2.6-0.3 0.2-0.5 0.6-0.7 0.9-0.6 1.3 0 2.9 1.3 3.5l0.8 0.4-2.2 4.8-0.8-0.4c-1.2-0.5-2.5-0.2-3.2 0.6zM24.8 33l-3.2-1.5c-0.4-0.2-0.6-0.8-0.4-1.2s0.7-0.6 1.2-0.4l1.6 0.7c0.4 0.2 1 0 1.2-0.4l1.5-3.2c-0.5 1.1-0.5 2.3-0.1 3.4 0.3 0.8 0.8 1.5 1.4 2-0.9 0.8-2.2 1.1-3.2 0.6zM33 30c-0.6 1.3-2.2 2-3.6 1.3-1.3-0.6-1.9-2.2-1.3-3.6 0.6-1.3 2.2-1.9 3.5-1.3 1.4 0.7 2 2.3 1.4 3.6z"></path>
</svg>
