<svg fill="#74C044"  xmlns="http://www.w3.org/2000/svg" width="74" height="74" id="icon-join" viewBox="0 0 322 322">
<path class="st0" d="M86.8,53.7L74.1,31.9l18.2-10.5L105,43.2l-4.8,2.8L90,28.5l-8.6,5L91.6,51L86.8,53.7z"/>
<path class="st0" d="M109.5,41.3l-8.3-23.8l9.7-3.4c2.8-1,5.3-1,7.5-0.1c2.2,0.9,3.7,2.7,4.6,5.2c0.9,2.6,0.7,5-0.6,7.1 c-1.3,2.1-3.3,3.6-6.1,4.6l-4,1.4l2.5,7.1L109.5,41.3z M110.6,27.6l4.1-1.5c1.3-0.5,2.2-1.1,2.7-2.1c0.5-0.9,0.6-1.9,0.2-3 c-0.4-1.2-1.1-1.9-2.1-2.3c-1-0.4-2.1-0.3-3.5,0.2l-4,1.4L110.6,27.6z"/>
<path class="st0" d="M149,5.9l3.7,24.9l-5.4,0.8l-2.4-16.3l-8.5,18l-5.2,0.8L127.5,9l5.4-0.8l2.4,16.3l8.6-18L149,5.9z"/>
<path class="st0" d="M169.3,31.7c-3.7-0.2-6.7-1.6-9-4.2c-2.3-2.6-3.4-5.8-3.2-9.4c0.2-3.6,1.6-6.7,4.2-9c2.6-2.4,5.8-3.5,9.6-3.3 c2.2,0.1,4,0.6,5.4,1.3c1.5,0.8,2.8,1.9,4.1,3.3l-3.5,3.6c-1-1-2-1.8-2.9-2.3c-0.9-0.5-2.1-0.8-3.4-0.8c-2.1-0.1-3.9,0.6-5.3,2 c-1.5,1.5-2.2,3.3-2.4,5.5c-0.1,2.2,0.5,4.1,1.8,5.7c1.3,1.6,3,2.5,5.1,2.6c1.3,0.1,2.5-0.1,3.5-0.5c1-0.4,2.1-1.1,3.2-2.1l3.3,4 c-1.4,1.4-3,2.4-4.6,3C173.6,31.6,171.6,31.8,169.3,31.7z"/>
<path class="st0" d="M204.1,34.4c-3.1,1.8-6.5,2.2-10.2,1.2c-3.7-1-6.5-3-8.3-6.1s-2.3-6.4-1.3-9.9c0.9-3.5,2.9-6.2,6-8 c3.1-1.8,6.5-2.2,10.2-1.2c3.7,1,6.5,3,8.3,6.1s2.3,6.4,1.3,9.9C209.3,30,207.3,32.6,204.1,34.4z M190.6,27.1c1,1.9,2.6,3.1,4.7,3.6 c2.1,0.6,4.1,0.3,5.8-0.8c1.8-1.1,2.9-2.8,3.5-4.9c0.6-2.1,0.3-4.1-0.7-6c-1-1.9-2.6-3.1-4.7-3.6c-2.1-0.6-4.1-0.3-5.8,0.8 c-1.8,1.1-2.9,2.8-3.5,4.9C189.3,23.3,189.6,25.3,190.6,27.1z"/>
<path class="st0" d="M210.4,40.4l11.2-22.6l17,8.4l-2.2,4.4l-12.1-6l-2.3,4.6l10.7,5.3l-2.2,4.4l-10.7-5.3l-2.3,4.7l12.3,6.1 l-2.2,4.4L210.4,40.4z"/>
<path class="st0" d="M225.5,53.4l6.2-8.2l1.9,1.4c2.2-1.2,4.2-2.7,6.1-4.5c1.9-1.8,4.1-4.3,6.6-7.6l1.8-2.4l14.6,11.1l-12.2,16.1 l2.4,1.8l-6.8,7.7l-3.7-2.8l3.2-4.2L233,52.4l-3.5,4L225.5,53.4z M255.2,43.9l-5.9-4.5l-1.5,2c-2.9,3.8-6,6.7-9.4,8.7L246,56 L255.2,43.9z"/>
<path class="st0" d="M284.9,66.9l-19,16.6l-3.6-4.1l12.4-10.9l-19.7,2.6l-3.4-3.9l19-16.6l3.6,4.1l-12.4,10.9l19.7-2.5L284.9,66.9z"/>
<path class="st0" d="M268.8,87.5L290.7,75l2.7,4.8l-8.7,4.9l5.1,8.9l8.7-4.9l2.7,4.8L279.3,106l-2.7-4.8l8.8-5l-5.1-8.9l-8.8,5 L268.8,87.5z"/>
<path class="st0" d="M312,123.3l-24,7.8l-1.7-5.2l15.7-5.1l-19.1-5.4l-1.6-5l24-7.8l1.7,5.2l-15.7,5.1l19.1,5.4L312,123.3z"/>
<path class="st0" d="M289.6,141.8l19.9-2.5l-1-7.6l5.1-0.6l2.6,20.7l-5.1,0.6l-1-7.6l-19.9,2.5L289.6,141.8z"/>
<path class="st0" d="M291.3,158.1l25.2,1.2l-0.3,5.5l-8.6-0.4l-0.3,5.4c-0.1,2.9-1,5.1-2.5,6.7c-1.6,1.6-3.6,2.3-6.1,2.2 c-2.6-0.1-4.6-1.1-6-2.9c-1.4-1.8-2.1-4.2-2-7.1L291.3,158.1z M302.7,169.1l0.2-4.9l-6.9-0.3l-0.2,4.9c-0.1,2.8,1,4.2,3.3,4.3 C301.3,173.2,302.5,171.9,302.7,169.1z"/>
<path class="st0" d="M286.7,192.7c0.9-3.6,2.8-6.3,5.8-8.1c3-1.8,6.3-2.3,9.9-1.4c3.5,0.8,6.3,2.8,8.1,5.8c1.9,3,2.4,6.3,1.5,10.1 c-0.5,2.1-1.3,3.8-2.3,5.1s-2.3,2.4-3.9,3.4l-2.9-4.1c1.2-0.8,2.1-1.6,2.8-2.5c0.7-0.8,1.1-1.9,1.4-3.2c0.5-2.1,0.2-3.9-1-5.6 c-1.2-1.7-2.8-2.8-5-3.3c-2.1-0.5-4.1-0.3-5.9,0.7s-3,2.5-3.5,4.6c-0.3,1.3-0.3,2.5-0.1,3.6c0.2,1.1,0.7,2.3,1.4,3.6l-4.5,2.6 c-1.1-1.7-1.8-3.4-2.1-5.1C286,196.9,286.1,195,286.7,192.7z"/>
<path class="st0" d="M298.1,234.5L275.2,224l2.3-5l7.3,3.4l1.8-4l-5.1-8.3l2.7-5.9l5.6,9.3c2.7-2.7,5.9-3.3,9.4-1.6 c2.4,1.1,3.9,2.7,4.5,4.8c0.6,2.2,0.3,4.6-0.9,7.3L298.1,234.5z M291.6,219.3l-2.3,5.1l6.6,3l2.3-5c0.6-1.2,0.7-2.3,0.5-3.3 s-0.9-1.7-2-2.2c-1-0.4-1.9-0.5-2.8,0C292.9,217.3,292.1,218.1,291.6,219.3z"/>
<path class="st0" d="M235.2,268.3l12.6,21.8l-18.2,10.5L217,278.8l4.8-2.8l10.1,17.5l8.6-5L230.4,271L235.2,268.3z"/>
<path class="st0" d="M212.5,280.7l8.3,23.8l-9.7,3.4c-2.8,1-5.3,1-7.5,0.1c-2.2-0.9-3.7-2.7-4.6-5.2c-0.9-2.6-0.7-5,0.6-7.1 c1.3-2.1,3.3-3.6,6.1-4.6l4-1.4l-2.5-7.1L212.5,280.7z M211.4,294.4l-4.1,1.5c-1.3,0.5-2.2,1.1-2.7,2.1s-0.6,2-0.2,3 c0.4,1.2,1.1,1.9,2.1,2.3c1,0.4,2.1,0.3,3.5-0.2l4-1.4L211.4,294.4z"/>
<path class="st0" d="M173,316.1l-3.7-24.9l5.4-0.8l2.4,16.3l8.5-17.9l5.2-0.8l3.7,24.9l-5.4,0.8l-2.4-16.3l-8.6,18L173,316.1z"/>
<path class="st0" d="M152.7,290.3c3.7,0.2,6.7,1.6,9,4.2c2.3,2.6,3.4,5.8,3.2,9.4c-0.2,3.6-1.6,6.7-4.2,9c-2.6,2.4-5.8,3.5-9.6,3.3 c-2.2-0.1-4-0.6-5.4-1.3c-1.5-0.8-2.8-1.9-4.1-3.3l3.5-3.6c1,1,2,1.8,2.9,2.3c0.9,0.5,2.1,0.8,3.4,0.8c2.1,0.1,3.9-0.6,5.3-2 c1.5-1.5,2.2-3.3,2.4-5.5c0.1-2.2-0.5-4.1-1.8-5.7c-1.3-1.6-3-2.5-5.1-2.6c-1.3-0.1-2.5,0.1-3.5,0.5c-1,0.4-2.1,1.1-3.2,2.1l-3.3-4 c1.4-1.4,3-2.4,4.6-3C148.4,290.4,150.4,290.2,152.7,290.3z"/>
<path class="st0" d="M117.9,287.6c3.1-1.8,6.5-2.2,10.2-1.2s6.5,3,8.3,6.1c1.8,3.1,2.3,6.4,1.3,9.9c-0.9,3.5-2.9,6.2-6,8 c-3.1,1.8-6.5,2.2-10.2,1.2c-3.7-1-6.5-3-8.3-6.1c-1.8-3.1-2.3-6.4-1.3-9.9C112.7,292,114.7,289.4,117.9,287.6z M131.4,294.9 c-1-1.9-2.6-3.1-4.7-3.6c-2.1-0.6-4.1-0.3-5.8,0.8c-1.8,1.1-2.9,2.8-3.5,4.9c-0.6,2.1-0.3,4.1,0.7,6c1,1.9,2.6,3.1,4.7,3.6 s4.1,0.3,5.8-0.8c1.8-1.1,2.9-2.8,3.5-4.9C132.7,298.7,132.4,296.7,131.4,294.9z"/>
<path class="st0" d="M111.6,281.6l-11.2,22.6l-17-8.4l2.2-4.4l12.1,6l2.3-4.6l-10.7-5.3l2.2-4.4l10.7,5.3l2.3-4.7l-12.3-6.1l2.2-4.4 L111.6,281.6z"/>
<path class="st0" d="M96.5,268.6l-6.2,8.2l-1.9-1.4c-2.2,1.2-4.2,2.7-6.1,4.5s-4.1,4.3-6.6,7.6l-1.8,2.4l-14.6-11.1l12.2-16.1 l-2.4-1.8l6.8-7.7l3.7,2.8l-3.2,4.2l12.6,9.5l3.5-4L96.5,268.6z M66.8,278.1l5.9,4.5l1.5-2c2.9-3.8,6-6.7,9.4-8.7L76,266L66.8,278.1z"/>
<path class="st0" d="M37.1,255.1l19-16.6l3.6,4.1l-12.4,10.9l19.7-2.6l3.4,3.9l-19,16.6l-3.6-4.1l12.4-10.9l-19.7,2.5L37.1,255.1z"/>
<path class="st0" d="M53.2,234.5L31.3,247l-2.7-4.8l8.7-4.9l-5.1-8.9l-8.7,4.9l-2.7-4.8L42.7,216l2.7,4.8l-8.8,5l5.1,8.9l8.8-5L53.2,234.5z"/>
<path class="st0" d="M10,198.7l24-7.8l1.7,5.2L20,201.2l19.1,5.4l1.6,5l-24,7.8l-1.7-5.2l15.7-5.1l-19.1-5.4L10,198.7z"/>
<path class="st0" d="M32.4,180.2l-19.9,2.5l1,7.6L8.3,191l-2.6-20.7l5.1-0.6l1,7.6l19.9-2.5L32.4,180.2z"/>
<path class="st0" d="M30.7,163.9l-25.2-1.2l0.3-5.5l8.6,0.4l0.3-5.4c0.1-2.9,1-5.1,2.5-6.7c1.6-1.6,3.6-2.3,6.1-2.2c2.6,0.1,4.6,1.1,6,2.9c1.4,1.8,2.1,4.2,2,7.1L30.7,163.9z M19.3,152.9l-0.2,4.9l6.9,0.3l0.2-4.9c0.1-2.8-1-4.2-3.3-4.3C20.7,148.8,19.5,150.1,19.3,152.9z"/>
<path class="st0" d="M35.3,129.3c-0.9,3.6-2.8,6.3-5.8,8.1c-3,1.8-6.3,2.3-9.9,1.4c-3.5-0.8-6.3-2.8-8.1-5.8c-1.9-3-2.4-6.3-1.5-10.1c0.5-2.1,1.3-3.8,2.3-5.1s2.3-2.4,3.9-3.4l2.9,4.1c-1.2,0.8-2.1,1.6-2.8,2.5c-0.7,0.8-1.1,1.9-1.4,3.2c-0.5,2.1-0.2,3.9,1,5.6c1.2,1.7,2.8,2.8,5,3.3c2.1,0.5,4.1,0.3,5.9-0.7s3-2.5,3.5-4.6c0.3-1.3,0.3-2.5,0.1-3.6c-0.2-1.1-0.7-2.3-1.4-3.6l4.5-2.6c1.1,1.7,1.8,3.4,2.1,5.1C36,125.1,35.9,127,35.3,129.3z"/>
<path class="st0" d="M23.9,87.5L46.8,98l-2.3,5l-7.3-3.4l-1.8,4l5.1,8.3l-2.7,5.9l-5.6-9.3c-2.7,2.7-5.9,3.3-9.4,1.6c-2.4-1.1-3.9-2.7-4.5-4.8c-0.6-2.2-0.3-4.6,0.9-7.3L23.9,87.5z M30.4,102.7l2.3-5.1l-6.6-3l-2.3,5c-0.6,1.2-0.7,2.3-0.5,3.3s0.9,1.7,2,2.2c1,0.4,1.9,0.5,2.8,0C29.1,104.7,29.9,103.9,30.4,102.7z"/>
</svg>